ply
format ascii 1.0
comment VCGLIB generated
element vertex 368
property float x
property float y
property float z
property float nx
property float ny
property float nz
property uchar red
property uchar green
property uchar blue
property uchar alpha
element face 522
property list uchar int vertex_indices
end_header
-0.152494 -0.333438 -1.12256 -2.70826 -1.01679 -1.03203 191 191 191 255 
-0.15499 -0.333504 -1.11594 -0.245176 3.21 -0.156477 191 191 191 255 
-0.158987 -0.337273 -1.12305 -3.56576 -4.71888 -2.04394 191 191 191 255 
-0.148745 -0.34444 -1.12566 -3.533 -5.01328 -1.30423 191 191 191 255 
-0.150797 -0.347624 -1.11093 -1.86315 -2.72055 -0.828302 191 191 191 255 
-0.162456 -0.33887 -1.10996 -3.49173 -5.13623 -0.761291 191 191 191 255 
-0.147074 -0.349342 -1.1117 -1.36106 -2.70303 -0.576674 191 191 191 255 
-0.173504 -0.331892 -1.1115 -0.459172 0.378442 -0.403654 191 191 191 255 
-0.153732 -0.345891 -1.1091 -2.16076 -2.71725 -0.461482 191 191 191 255 
-0.13944 -0.352385 -1.1153 -1.229 -2.50341 -0.489383 191 191 191 255 
-0.167448 -0.333543 -1.11937 -0.497914 0.167051 -0.554634 191 191 191 255 
-0.156438 -0.333972 -1.11049 -0.151478 3.31114 0.333724 191 191 191 255 
-0.154531 -0.339569 -1.1024 -0.505474 0.66338 3.15977 191 191 191 255 
-0.143198 -0.351007 -1.11274 -1.18465 -2.51887 -0.382409 191 191 191 255 
-0.185058 -0.327531 -1.1056 -0.232432 -0.59554 1.04906 191 191 191 255 
-0.166154 -0.333872 -1.12061 -0.82276 0.18814 -0.489364 191 191 191 255 
-0.17119 -0.333037 -1.11263 -3.06713 -5.3392 -1.20396 191 191 191 255 
-0.155226 -0.343933 -1.10592 -1.82024 -2.78592 0.670477 191 191 191 255 
-0.153835 -0.33979 -1.10285 0.449743 -0.00456914 0.690329 191 191 191 255 
-0.155976 -0.34238 -1.10138 -0.648004 0.021588 -0.575732 191 191 191 255 
-0.182992 -0.328357 -1.10548 0.40164 0.771195 -1.4249 191 191 191 255 
-0.178387 -0.330694 -1.10478 -0.47222 0.339231 -0.222524 191 191 191 255 
-0.156722 -0.334855 -1.10584 0.286155 2.8055 1.82885 191 191 191 255 
-0.15478 -0.340502 -1.10224 0.086495 0.528497 1.58424 191 191 191 255 
-0.155451 -0.341449 -1.10194 0.984463 -1.23358 0.446563 191 191 191 255 
-0.156047 -0.341685 -1.10128 -2.53793 -2.24531 -0.21952 191 191 191 255 
-0.18867 -0.326776 -1.1051 0.975178 -0.0441026 1.02479 191 191 191 255 
-0.17595 -0.332188 -1.10275 2.2168 5.67946 1.41601 191 191 191 255 
-0.179624 -0.330546 -1.10273 -2.68485 -5.49697 -1.35554 191 191 191 255 
-0.162185 -0.334849 -1.10478 0.623132 4.17073 1.41188 191 191 191 255 
-0.175031 -0.333951 -1.09947 -2.58347 -5.57344 -1.27378 191 191 191 255 
-0.156843 -0.336306 -1.10013 0 0 0 191 191 191 255 
-0.165505 -0.337173 -1.10129 -1.42883 -4.07198 1.56107 191 191 191 255 
-0.217205 -0.317586 -1.09974 0.78844 -2.20268 -0.987701 191 191 191 255 
-0.188565 -0.32661 -1.10479 1.47345 -3.67608 0.0779676 191 191 191 255 
-0.173952 -0.334362 -1.09967 0.373169 1.8479 -1.54574 191 191 191 255 
-0.15727 -0.339888 -1.09969 -0.890115 -1.74449 0.840744 191 191 191 255 
-0.167418 -0.336525 -1.10066 0.0512284 -0.962173 2.30606 191 191 191 255 
-0.155326 -0.34071 -1.10178 0 5.96046e-08 -1.19209e-07 191 191 191 255 
-0.220928 -0.318502 -1.10034 0.268485 -1.81791 -0.584129 191 191 191 255 
-0.184289 -0.32996 -1.09751 2.34073 5.65841 1.39343 191 191 191 255 
-0.188274 -0.328386 -1.0981 3.52754 1.14496 0.0702363 191 191 191 255 
-0.178106 -0.334015 -1.09264 0.574006 -0.273626 0.370256 191 191 191 255 
-0.181312 -0.333358 -1.08961 2.49692 5.60696 1.32456 191 191 191 255 
-0.16534 -0.336972 -1.1012 0.886902 0.930708 2.61416 191 191 191 255 
-0.222348 -0.31797 -1.10048 0 0 0 191 191 191 255 
-0.220979 -0.318452 -1.10097 0 0 0 191 191 191 255 
-0.221901 -0.318966 -1.0984 -0.0152139 -2.94408 -0.603079 191 191 191 255 
-0.210149 -0.328433 -1.08608 1.24606 -2.12506 -2.70303 191 191 191 255 
-0.180396 -0.332162 -1.09603 -2.73803 -5.45382 -1.48692 191 191 191 255 
-0.183248 -0.333129 -1.08689 1.07788 -2.20882 1.07271 191 191 191 255 
-0.187709 -0.329589 -1.09195 -0.233415 -5.61663 -1.31986 191 191 191 255 
-0.176944 -0.33464 -1.0916 0.0161341 -0.00583387 -0.000743572 191 191 191 255 
-0.213676 -0.31743 -1.09655 1.14198 -2.31243 -1.07364 191 191 191 255 
-0.224533 -0.320131 -1.09057 -1.08117 -2.31235 -1.72549 191 191 191 255 
-0.215611 -0.320161 -1.09273 1.08847 -4.8564 -3.4861 191 191 191 255 
-0.211178 -0.329102 -1.08447 0.202188 -2.60795 -0.918151 191 191 191 255 
-0.179501 -0.333942 -1.0904 0.26188 -1.21182 1.57053 191 191 191 255 
-0.210539 -0.318206 -1.09109 1.82889 -1.4486 -1.79135 191 191 191 255 
-0.210997 -0.32404 -1.08862 3.77482 -1.75252 -4.37132 191 191 191 255 
-0.224595 -0.324913 -1.08642 -1.65544 -3.66498 -4.27327 191 191 191 255 
-0.209205 -0.328007 -1.08516 0.616519 -1.0652 -1.54195 191 191 191 255 
-0.187863 -0.330203 -1.08956 4.12968 4.10416 1.14219 191 191 191 255 
-0.20627 -0.327623 -1.0859 0 0 0 191 191 191 255 
-0.183428 -0.335252 -1.08253 0.424844 -0.389431 -0.0863406 191 191 191 255 
-0.184044 -0.335251 -1.0811 -0.782311 1.81132 -0.300404 191 191 191 255 
-0.208032 -0.319682 -1.08449 2.81114 -0.299913 -1.13925 191 191 191 255 
-0.208756 -0.327766 -1.08553 1.31514 -1.39088 -2.06227 191 191 191 255 
-0.223881 -0.331425 -1.08067 -0.570501 -2.35873 -2.30755 191 191 191 255 
-0.227064 -0.331587 -1.07946 -1.32676 -1.79597 -2.3076 191 191 191 255 
-0.185791 -0.332682 -1.08336 3.54717 4.90289 1.5752 191 191 191 255 
-0.18917 -0.331459 -1.07918 4.13505 4.53285 1.24072 191 191 191 255 
-0.189126 -0.331291 -1.08001 0.25416 -0.172495 -0.23187 191 191 191 255 
-0.227044 -0.320813 -1.08234 -2.86798 -0.0395717 -1.31666 191 191 191 255 
-0.225503 -0.326409 -1.08422 -5.27894 -1.0792 -3.17964 191 191 191 255 
-0.207173 -0.32378 -1.07848 3.77162 -1.28906 -0.357649 191 191 191 255 
-0.188314 -0.331245 -1.08251 2.92665 5.43117 1.059 191 191 191 255 
-0.216632 -0.330625 -1.08048 0.278038 -2.38449 -0.558939 191 191 191 255 
-0.220624 -0.331159 -1.08068 -0.186402 2.20217 -2.12714 191 191 191 255 
-0.188 -0.33286 -1.0777 4.0618 4.57451 1.4215 191 191 191 255 
-0.186027 -0.335079 -1.0787 -2.3004 -5.01826 -0.746261 191 191 191 255 
-0.206422 -0.32162 -1.07775 2.93112 -0.657211 -0.530586 191 191 191 255 
-0.205844 -0.323798 -1.07141 2.66555 -1.42961 -0.453153 191 191 191 255 
-0.21083 -0.331376 -1.07111 1.16837 -0.808544 -0.149189 191 191 191 255 
-0.190227 -0.332215 -1.07185 -3.87925 -4.38914 -1.8166 191 191 191 255 
-0.189569 -0.333227 -1.07157 3.69623 4.7623 1.25903 191 191 191 255 
-0.186993 -0.334869 -1.07437 -0.364253 0.379378 0.182446 191 191 191 255 
-0.18806 -0.334597 -1.06974 -0.0213113 0.0324629 -0.0981142 191 191 191 255 
-0.243236 -0.329084 -1.07032 -0.275157 2.30076 -1.76804 191 191 191 255 
-0.207295 -0.326829 -1.06974 3.8862 -2.50749 -0.397788 191 191 191 255 
-0.230776 -0.331592 -1.07699 -2.10924 0.0830071 -2.16462 191 191 191 255 
-0.235051 -0.331195 -1.07423 -1.59127 1.2637 -2.30847 191 191 191 255 
-0.190341 -0.332119 -1.07239 4.06339 4.56979 1.33017 191 191 191 255 
-0.19235 -0.331692 -1.06763 -1.02295 -0.962839 -0.585223 191 191 191 255 
-0.192798 -0.331689 -1.06693 0.285998 1.18487 0.401677 191 191 191 255 
-0.18882 -0.333296 -1.0725 -4.11542 -4.50975 -1.29996 191 191 191 255 
-0.229913 -0.321249 -1.07451 -2.71894 0.756914 -1.19339 191 191 191 255 
-0.230961 -0.326133 -1.07522 -4.8771 1.71593 -3.33628 191 191 191 255 
-0.1963 -0.332728 -1.06265 -0.0156679 0.000729799 0.0343731 191 191 191 255 
-0.246511 -0.326441 -1.06615 0.0142114 2.07489 -1.17913 191 191 191 255 
-0.245799 -0.327758 -1.06846 0.181736 2.20449 -1.2776 191 191 191 255 
-0.239424 -0.330303 -1.07203 -0.467983 2.23864 -2.09105 191 191 191 255 
-0.207475 -0.3271 -1.06038 2.9525 -1.29977 0.218354 191 191 191 255 
-0.206264 -0.325776 -1.0657 2.66123 -1.64305 -0.165021 191 191 191 255 
-0.196316 -0.332735 -1.06264 0.00734716 0.0691182 -0.0248455 191 191 191 255 
-0.196335 -0.33276 -1.06271 -0.025302 -0.0126555 0.00275578 191 191 191 255 
-0.194761 -0.333235 -1.05554 0.0983071 0.10022 -0.786853 191 191 191 255 
-0.239494 -0.32609 -1.06751 -2.1919 4.55309 -3.61006 191 191 191 255 
-0.210366 -0.3341 -1.05251 2.96176 -0.715767 -0.22035 191 191 191 255 
-0.208956 -0.327817 -1.05459 3.07702 -0.487765 0.612799 191 191 191 255 
-0.210345 -0.332828 -1.06174 2.75811 -1.513 -0.15917 191 191 191 255 
-0.19757 -0.333448 -1.05234 -2.73176 3.09639 -2.44961 191 191 191 255 
-0.23777 -0.322789 -1.06405 -1.27128 2.01273 -1.28754 191 191 191 255 
-0.241941 -0.32394 -1.06282 -0.640507 2.12453 -1.30923 191 191 191 255 
-0.233533 -0.321855 -1.06808 -1.76012 1.72562 -1.50287 191 191 191 255 
-0.194742 -0.333234 -1.05511 0.290911 -0.00505692 0.203633 191 191 191 255 
-0.098325 -0.355565 -1.19621 -1.29255 2.40145 -1.61228 191 191 191 255 
-0.094212 -0.351313 -1.19295 -1.1207 2.57136 -1.59399 191 191 191 255 
-0.101921 -0.353851 -1.19104 -1.40937 2.25585 -1.73615 191 191 191 255 
-0.098877 -0.349344 -1.18765 -1.32694 2.24351 -1.81728 191 191 191 255 
-0.105856 -0.352192 -1.18573 -1.51566 2.1276 -1.82442 191 191 191 255 
-0.110195 -0.350865 -1.17985 -1.84201 1.72166 -1.95053 191 191 191 255 
-0.114724 -0.350136 -1.17318 -2.49833 0.839705 -1.81973 191 191 191 255 
-0.113671 -0.342683 -1.17042 -1.97421 1.18712 -2.11369 191 191 191 255 
-0.108955 -0.344669 -1.17559 -1.56275 1.73086 -2.06215 191 191 191 255 
-0.103909 -0.346971 -1.18152 -1.56355 1.93794 -1.89121 191 191 191 255 
-0.117841 -0.341002 -1.16598 -2.32133 0.417535 -2.03643 191 191 191 255 
-0.121515 -0.33963 -1.162 -2.28819 0.0758001 -2.06773 191 191 191 255 
-0.118891 -0.350154 -1.1658 -2.67085 -0.0458707 -1.76557 191 191 191 255 
-0.125906 -0.34334 -1.15706 -4.74273 -0.598879 -4.04136 191 191 191 255 
-0.122357 -0.35076 -1.15805 -2.59037 -1.39752 -1.2215 191 191 191 255 
-0.128819 -0.338011 -1.15528 -1.88003 -0.198927 -2.4826 191 191 191 255 
-0.125029 -0.338651 -1.15845 -2.1215 -0.261256 -2.21989 191 191 191 255 
-0.12527 -0.351527 -1.15028 -2.5848 -1.45965 -1.04864 191 191 191 255 
-0.142098 -0.335837 -1.14399 -2.0363 -0.58674 -2.24435 191 191 191 255 
-0.133099 -0.337457 -1.15223 -1.96235 -1.27307 -2.08911 191 191 191 255 
-0.129792 -0.342377 -1.15187 -4.34316 -3.10483 -3.18125 191 191 191 255 
-0.137677 -0.336754 -1.14871 -1.91082 -1.8091 -1.54927 191 191 191 255 
-0.146934 -0.337529 -1.13957 -3.32951 1.28858 -4.3433 191 191 191 255 
-0.146985 -0.34353 -1.13736 -2.85119 -2.54729 -1.74194 191 191 191 255 
-0.146977 -0.343531 -1.13737 -3.1325 -2.8055 -3.03178 191 191 191 255 
-0.127761 -0.352168 -1.14283 -1.82337 -2.21995 -1.28587 191 191 191 255 
-0.151691 -0.338102 -1.13831 -2.17182 0.455615 -2.11854 191 191 191 255 
-0.146014 -0.334802 -1.13765 -2.26968 1.74308 -1.3875 191 191 191 255 
-0.151929 -0.338088 -1.13757 -4.6455 0.998969 -1.71751 191 191 191 255 
-0.131289 -0.353237 -1.13005 -1.14647 -2.77515 -0.54081 191 191 191 255 
-0.245119 -0.325169 -1.0639 -0.311129 2.12756 -1.28431 191 191 191 255 
-0.210017 -0.328524 -1.04745 2.78807 1.02925 -0.349463 191 191 191 255 
-0.19928 -0.333651 -1.05089 0.366726 5.02501 0.681942 191 191 191 255 
-0.20661 -0.33297 -1.04528 3.78292 3.34661 -1.95678 191 191 191 255 
-0.206447 -0.33317 -1.04508 0.971829 -5.75821 -0.918171 191 191 191 255 
-0.194783 -0.333178 -1.05565 -2.07776 -2.80226 -0.0968816 191 191 191 255 
-0.200566 -0.333667 -1.04939 0.0904318 0.142604 -0.141531 191 191 191 255 
-0.200596 -0.33359 -1.04938 1.35821 -2.06691 0.797569 191 191 191 255 
-0.208534 -0.332829 -1.04044 4.75428 3.43835 1.40528 191 191 191 255 
-0.208414 -0.332886 -1.04062 4.34128 -3.72337 1.87782 191 191 191 255 
-0.210319 -0.335151 -1.04319 1.82586 -2.45688 0.147664 191 191 191 255 
-0.210314 -0.329818 -1.03902 2.59368 1.51577 0.435871 191 191 191 255 
-0.20983 -0.335922 -1.03383 3.03744 -0.590452 0.182866 191 191 191 255 
-0.209084 -0.336382 -1.02523 2.95748 0.83083 -0.137002 191 191 191 255 
-0.210047 -0.331775 -1.0307 2.98751 0.454903 0.203972 191 191 191 255 
-0.209907 -0.334014 -1.02984 6.18756 0.498792 -0.276001 191 191 191 255 
-0.208976 -0.336339 -1.02346 2.49913 0.593174 -0.102769 191 191 191 255 
-0.209175 -0.335492 -1.02213 1.13915 0.281557 -0.00885435 191 191 191 255 
-0.20959 -0.33389 -1.02457 2.82116 0.609982 -0.054198 191 191 191 255 
-0.157172 -0.335976 -1.1272 -5.28606 -0.910086 -3.07874 191 191 191 255 
-0.14698 -0.343534 -1.13735 -2.87048 -4.30914 -0.876851 191 191 191 255 
-0.129701 -0.352724 -1.13604 -1.41324 -2.75635 -0.627572 191 191 191 255 
-0.149434 -0.333903 -1.13013 -1.11733 2.75706 -1.02766 191 191 191 255 
-0.153166 -0.338435 -1.13307 -4.45943 -4.13474 -1.52387 191 191 191 255 
-0.135998 -0.353246 -1.11951 -1.35647 -2.52159 -0.589234 191 191 191 255 
-0.133229 -0.353499 -1.12459 -1.28817 -2.60397 -0.572865 191 191 191 255 
-0.157723 -0.335438 -1.1261 -1.22711 5.69661 -2.12275 191 191 191 255 
-0.164549 -0.334314 -1.12185 -2.52363 -0.531864 -2.85843 191 191 191 255 
-0.158009 -0.352913 -1.16428 0.0102442 2.35847 -1.03074 191 191 191 255 
-0.160691 -0.352331 -1.16298 0.00321829 2.03431 -0.927714 191 191 191 255 
-0.127679 -0.351639 -1.16357 -0.302969 2.54629 -1.23477 191 191 191 255 
-0.132893 -0.35268 -1.16449 -0.510672 5.5995 -2.8023 191 191 191 255 
-0.140962 -0.355577 -1.16864 -0.211111 2.76455 -1.54193 191 191 191 255 
-0.12877 -0.354079 -1.16809 -0.27071 2.46193 -1.26926 191 191 191 255 
-0.088361 -0.35675 -1.18156 -0.910125 3.49908 -1.36463 191 191 191 255 
-0.093336 -0.352478 -1.16583 0.192023 6.1431 -1.12144 191 191 191 255 
-0.077453 -0.351415 -1.16654 -1.10399 6.01272 0.839127 191 191 191 255 
-0.08466 -0.354484 -1.18126 -1.80632 3.69117 -0.558166 191 191 191 255 
-0.137203 -0.367927 -1.16662 0.0870651 -2.77799 1.43058 191 191 191 255 
-0.130418 -0.365172 -1.16169 0.342 -5.58309 2.85873 191 191 191 255 
-0.053214 -0.358936 -1.1689 0.258938 -2.48574 5.74292 191 191 191 255 
-0.132104 -0.369713 -1.1701 0.0560565 -2.92037 1.56507 191 191 191 255 
-0.127948 -0.371774 -1.17411 0.313253 -3.00249 1.62128 191 191 191 255 
-0.100586 -0.363312 -1.1651 0.924863 -5.32963 3.188 191 191 191 255 
-0.11361 -0.368377 -1.17125 0.747449 -5.53877 2.87039 191 191 191 255 
-0.084534 -0.365965 -1.17296 0.458569 -5.14196 3.56198 191 191 191 255 
-0.070611 -0.346113 -1.17596 -3.59651 4.94083 1.41192 191 191 191 255 
-0.134527 -0.357191 -1.17294 -0.215931 2.04769 -1.03621 191 191 191 255 
-0.131304 -0.356127 -1.17151 -0.239505 2.3336 -1.20607 191 191 191 255 
-0.137761 -0.356945 -1.17178 -0.243582 2.33732 -1.25166 191 191 191 255 
-0.116649 -0.358877 -1.17628 -0.569484 2.73201 -1.40577 191 191 191 255 
-0.118872 -0.361192 -1.17996 -0.414137 2.33544 -1.18727 191 191 191 255 
-0.101575 -0.358797 -1.18049 -0.930361 5.3542 -3.14856 191 191 191 255 
-0.111718 -0.374274 -1.18331 0.442991 -2.76067 1.41939 191 191 191 255 
-0.092626 -0.370111 -1.17892 0.385906 -5.50746 2.99635 191 191 191 255 
-0.106651 -0.374257 -1.18492 0.383397 -3.33491 1.63044 191 191 191 255 
-0.076852 -0.365654 -1.17304 0.208427 -4.88698 3.91655 191 191 191 255 
-0.06858 -0.366011 -1.17389 -0.144581 -4.44564 4.40921 191 191 191 255 
-0.060535 -0.37182 -1.17828 -1.33151 -4.12721 4.50436 191 191 191 255 
-0.053534 -0.368136 -1.17421 -0.981357 -3.26946 5.24725 191 191 191 255 
-0.081576 -0.35419 -1.18518 -2.26403 2.69158 -0.613299 191 191 191 255 
-0.113838 -0.355993 -1.17182 -0.499501 2.94201 -1.59228 191 191 191 255 
-0.116303 -0.364177 -1.18667 -0.197186 2.65098 -1.31148 191 191 191 255 
-0.118845 -0.362866 -1.18333 -0.346916 2.23287 -1.13104 191 191 191 255 
-0.117413 -0.361131 -1.18035 -0.889752 5.51873 -2.86742 191 191 191 255 
-0.125291 -0.374101 -1.17902 0.276987 -2.01943 1.07115 191 191 191 255 
-0.117622 -0.375293 -1.18354 0 0 0 191 191 191 255 
-0.087214 -0.372057 -1.18278 0.0886589 -5.44234 3.13452 191 191 191 255 
-0.072652 -0.371302 -1.1808 -0.589277 -5.03418 3.69528 191 191 191 255 
-0.101652 -0.36313 -1.18806 -0.777294 5.39832 -3.11821 191 191 191 255 
-0.108225 -0.367918 -1.19463 -0.349633 2.83276 -1.71464 191 191 191 255 
-0.112322 -0.365701 -1.19026 -0.346835 2.80944 -1.58916 191 191 191 255 
-0.092748 -0.364595 -1.19326 -0.555291 2.93433 -1.58758 191 191 191 255 
-0.091381 -0.360443 -1.18608 -0.522711 2.93053 -1.78581 191 191 191 255 
-0.104714 -0.37082 -1.20023 -0.569833 2.78929 -1.58259 191 191 191 255 
-0.12585 -0.377598 -1.18693 0 0 0 191 191 191 255 
-0.126553 -0.378151 -1.18805 0 0 0 191 191 191 255 
-0.125625 -0.377795 -1.18716 0 0 0 191 191 191 255 
-0.101773 -0.378152 -1.19411 0.0691823 -3.10243 1.47913 191 191 191 255 
-0.103197 -0.375686 -1.18877 0.172842 -3.24647 1.56101 191 191 191 255 
-0.084549 -0.374883 -1.18796 -0.201589 -5.55113 2.92486 191 191 191 255 
-0.076822 -0.375785 -1.18805 -0.893475 -5.19493 3.41059 191 191 191 255 
-0.092951 -0.379594 -1.20175 -0.0706257 -3.60278 0.830106 191 191 191 255 
-0.085686 -0.378148 -1.19486 -0.533418 -5.68764 2.55732 191 191 191 255 
-0.10175 -0.373966 -1.20691 -0.262037 1.0694 -0.620567 191 191 191 255 
-0.102141 -0.380914 -1.19975 0.0999628 -1.55495 0.542506 191 191 191 255 
-0.103428 -0.383436 -1.20491 0.163595 -1.48529 0.834528 191 191 191 255 
-0.104267 -0.385448 -1.20941 0.340379 -2.53744 1.07154 191 191 191 255 
-0.167127 -0.323457 -1.07507 2.44331 0.401181 -0.514133 191 191 191 255 
-0.167496 -0.321384 -1.07521 2.03779 0.272199 -0.2252 191 191 191 255 
-0.167769 -0.320553 -1.07708 2.42836 0.47993 0.228302 191 191 191 255 
-0.16702 -0.326158 -1.07667 2.72542 0.218257 0.754862 191 191 191 255 
-0.162918 -0.323918 -1.08747 2.83673 0.485769 1.3989 191 191 191 255 
-0.16572 -0.322499 -1.0837 2.55478 1.31944 1.07566 191 191 191 255 
-0.167336 -0.321114 -1.08014 1.54632 2.35352 -0.213159 191 191 191 255 
-0.166744 -0.328895 -1.07957 2.2233 -1.14683 1.35593 191 191 191 255 
-0.163151 -0.329488 -1.08597 5.45419 -1.08012 2.88804 191 191 191 255 
-0.160209 -0.328859 -1.09209 4.64195 -0.179942 3.8971 191 191 191 255 
-0.159701 -0.325061 -1.0915 2.43144 -0.608141 1.79707 191 191 191 255 
-0.157377 -0.32621 -1.09603 2.02642 1.89817 1.50247 191 191 191 255 
-0.165345 -0.331274 -1.08336 2.40454 -0.785867 1.4881 191 191 191 255 
-0.162837 -0.333206 -1.08778 2.75794 -0.45612 1.41864 191 191 191 255 
-0.160879 -0.335051 -1.09253 1.91614 -1.3979 2.37674 191 191 191 255 
-0.156993 -0.327758 -1.10122 0.279294 3.33333 -0.353594 191 191 191 255 
-0.140512 -0.334761 -1.1014 1.43296 0.63332 3.20778 191 191 191 255 
-0.148279 -0.32583 -1.10069 -0.0728138 -0.241743 2.25373 191 191 191 255 
-0.141827 -0.336367 -1.10253 0.709875 -3.1308 2.66031 191 191 191 255 
-0.163767 -0.332315 -1.1126 0 0 0 191 191 191 255 
-0.148441 -0.325905 -1.10083 -1.43113 1.09109 1.83557 191 191 191 255 
-0.148135 -0.32578 -1.10084 1.74853 1.98738 0.19265 191 191 191 255 
-0.148297 -0.325855 -1.10097 -0.539562 2.5848 -2.4571 191 191 191 255 
-0.147292 -0.331968 -1.10893 2.26586 4.76532 -3.16086 191 191 191 255 
-0.137617 -0.334418 -1.10239 1.32019 2.37812 0.910791 191 191 191 255 
-0.140425 -0.332565 -1.10316 2.91837 4.60761 0.945799 191 191 191 255 
-0.161016 -0.342222 -1.10603 1.11649 -5.35871 3.0835 191 191 191 255 
-0.162297 -0.340254 -1.10217 0.38854 -2.51241 1.41027 191 191 191 255 
-0.160973 -0.337364 -1.09735 0.617953 -2.92606 1.54658 191 191 191 255 
-0.162277 -0.343151 -1.10714 0.488408 -2.27114 1.30945 191 191 191 255 
-0.163767 -0.332318 -1.1126 0 0 0 191 191 191 255 
-0.158527 -0.329768 -1.10684 0.0468418 2.36212 -0.97935 191 191 191 255 
-0.142403 -0.335102 -1.11559 2.91314 1.38392 -2.12674 191 191 191 255 
-0.156832 -0.343001 -1.10889 1.06842 -5.41865 2.99466 191 191 191 255 
-0.159399 -0.345458 -1.11238 0.561346 -2.52323 1.3662 191 191 191 255 
-0.140583 -0.338037 -1.10484 0.460911 -3.16711 1.98237 191 191 191 255 
-0.13458 -0.342688 -1.1172 1.67154 -5.32848 2.84157 191 191 191 255 
-0.137685 -0.338494 -1.10659 0.956778 -3.34256 1.69838 191 191 191 255 
-0.135318 -0.337394 -1.10654 2.09575 -3.02136 2.1896 191 191 191 255 
-0.150501 -0.334077 -1.12167 0.862075 3.47893 -0.561345 191 191 191 255 
-0.154835 -0.333044 -1.11737 0.481135 2.60536 -0.52149 191 191 191 255 
-0.13139 -0.337565 -1.11817 1.22214 6.1129 -0.716096 191 191 191 255 
-0.135296 -0.335582 -1.1047 1.52739 2.25554 0.0486401 191 191 191 255 
-0.125567 -0.33888 -1.11818 2.09074 5.69205 0.636975 191 191 191 255 
-0.11739 -0.340563 -1.12706 2.73724 3.19634 1.67218 191 191 191 255 
-0.154847 -0.347299 -1.11779 0.573502 -2.83367 1.45605 191 191 191 255 
-0.130649 -0.345612 -1.12425 1.63577 -5.15195 3.16302 191 191 191 255 
-0.124121 -0.339384 -1.1194 3.47157 -2.78609 3.76626 191 191 191 255 
-0.120546 -0.339882 -1.12348 2.23626 2.69037 1.43398 191 191 191 255 
-0.147576 -0.33873 -1.13282 0.313702 5.69766 -2.62508 191 191 191 255 
-0.149525 -0.335404 -1.12567 0.622844 3.52917 -1.04495 191 191 191 255 
-0.151623 -0.337318 -1.13013 0.138238 2.9158 -1.34061 191 191 191 255 
-0.13143 -0.338654 -1.1254 0.952491 6.09228 -1.15948 191 191 191 255 
-0.120905 -0.34046 -1.13896 0.114707 3.79435 -0.133158 191 191 191 255 
-0.151129 -0.34929 -1.1231 0.615527 -2.96702 1.59161 191 191 191 255 
-0.123287 -0.343274 -1.12497 2.11981 -4.77778 3.45651 191 191 191 255 
-0.122107 -0.348291 -1.13284 1.66544 -5.01644 3.37031 191 191 191 255 
-0.117066 -0.342088 -1.12777 3.02848 -3.55291 4.01659 191 191 191 255 
-0.113035 -0.343215 -1.13189 3.11282 1.17781 2.07697 191 191 191 255 
-0.149392 -0.351629 -1.12803 0.572243 -2.84872 1.52351 191 191 191 255 
-0.111445 -0.344254 -1.13362 2.66848 0.555954 1.63889 191 191 191 255 
-0.115637 -0.344232 -1.13088 2.31765 -4.25917 3.91043 191 191 191 255 
-0.154642 -0.339702 -1.13541 0.0688322 2.71351 -1.21319 191 191 191 255 
-0.139806 -0.339124 -1.13264 0.766658 5.91085 -1.9224 191 191 191 255 
-0.124883 -0.34112 -1.14054 -0.0873631 -2.38076 1.21601 191 191 191 255 
-0.138867 -0.341259 -1.13919 0.0693045 5.92394 -2.01468 191 191 191 255 
-0.11764 -0.340973 -1.13998 1.44487 3.49082 -0.193045 191 191 191 255 
-0.108778 -0.345896 -1.14257 2.85697 5.24029 0.624965 191 191 191 255 
-0.146909 -0.355853 -1.13695 0.924406 -2.50813 1.44438 191 191 191 255 
-0.148518 -0.353911 -1.13254 0.942581 -2.44667 1.42034 191 191 191 255 
-0.129658 -0.349974 -1.13208 1.29254 -5.30083 3.09556 191 191 191 255 
-0.144677 -0.357704 -1.1416 0.544759 -2.94255 1.46922 191 191 191 255 
-0.10581 -0.348174 -1.14212 2.46428 2.41212 3.99351 191 191 191 255 
-0.09398 -0.347905 -1.14308 0.150044 2.48178 3.71239 191 191 191 255 
-0.155334 -0.341232 -1.13893 0.0164307 5.77117 -2.48345 191 191 191 255 
-0.156592 -0.342121 -1.14097 -0.00041417 2.74403 -1.19617 191 191 191 255 
-0.128126 -0.342781 -1.14402 -0.162145 3.27898 -1.37519 191 191 191 255 
-0.115784 -0.342483 -1.14355 1.52293 2.94358 -0.634006 191 191 191 255 
-0.114754 -0.344597 -1.14873 1.46385 2.64577 -0.844305 191 191 191 255 
-0.092462 -0.351438 -1.14985 3.46909 5.00841 -0.767925 191 191 191 255 
-0.093163 -0.347873 -1.14321 1.47574 2.00007 1.28458 191 191 191 255 
-0.100165 -0.348874 -1.14991 1.03403 6.06289 -1.12331 191 191 191 255 
-0.127618 -0.353706 -1.13943 1.12627 -5.36954 3.04538 191 191 191 255 
-0.109887 -0.350076 -1.14148 1.55077 -4.5886 3.92546 191 191 191 255 
-0.100537 -0.35018 -1.14294 0.729022 -1.63266 5.17571 191 191 191 255 
-0.143459 -0.359751 -1.14643 0.463904 -3.14886 1.45302 191 191 191 255 
-0.131272 -0.359101 -1.1485 0.728954 -5.57492 2.80044 191 191 191 255 
-0.107121 -0.355781 -1.14928 0.712142 -5.24393 3.35062 191 191 191 255 
-0.094994 -0.351471 -1.14396 -0.487759 -3.48233 4.78194 191 191 191 255 
-0.091678 -0.352246 -1.14429 4.28355 -1.53548 0.593242 191 191 191 255 
-0.091829 -0.352183 -1.14357 1.58228 -1.27357 1.95745 191 191 191 255 
-0.155823 -0.348659 -1.15513 0.00808198 5.67453 -2.69765 191 191 191 255 
-0.158609 -0.346407 -1.15047 0.0169819 2.92256 -1.38937 191 191 191 255 
-0.139831 -0.345521 -1.14877 -0.151545 5.6833 -2.67269 191 191 191 255 
-0.157493 -0.344308 -1.14598 -0.00187967 2.90931 -1.3315 191 191 191 255 
-0.12957 -0.344955 -1.14857 -0.175505 3.15336 -1.47336 191 191 191 255 
-0.11362 -0.347026 -1.15451 3.05879 0.295516 0.476099 191 191 191 255 
-0.089948 -0.353752 -1.1567 2.86866 -0.0654767 4.0219 191 191 191 255 
-0.077997 -0.352746 -1.16079 0.96935 1.80802 3.22298 191 191 191 255 
-0.085987 -0.352951 -1.15901 0.463973 5.93049 1.62868 191 191 191 255 
-0.062413 -0.345162 -1.16252 -0.471609 1.44746 3.29767 191 191 191 255 
-0.070777 -0.352621 -1.16349 0.345485 0.1612 5.27585 191 191 191 255 
-0.123266 -0.357759 -1.14795 0.975772 -5.42627 2.97827 191 191 191 255 
-0.115334 -0.357185 -1.14942 0.895858 -5.26142 3.27609 191 191 191 255 
-0.094399 -0.357421 -1.15797 1.68885 -5.04909 3.25655 191 191 191 255 
-0.096883 -0.354668 -1.15011 1.26272 -5.67121 2.28301 191 191 191 255 
-0.078129 -0.355087 -1.1616 1.9638 -2.89258 5.10767 191 191 191 255 
-0.153827 -0.352797 -1.16398 0.033491 2.89406 -1.36158 191 191 191 255 
-0.161355 -0.350768 -1.15958 -0.00484648 2.49415 -1.16485 191 191 191 255 
-0.160267 -0.348617 -1.15504 -0.00240005 2.74177 -1.31011 191 191 191 255 
-0.149055 -0.352891 -1.16382 0.144088 3.19638 -1.55993 191 191 191 255 
-0.148105 -0.348727 -1.1552 0.0398451 5.64567 -2.75667 191 191 191 255 
-0.144626 -0.353902 -1.1654 -0.0692249 3.13546 -1.60546 191 191 191 255 
-0.128125 -0.349312 -1.15862 -0.900652 2.5776 -1.29078 191 191 191 255 
-0.112428 -0.349762 -1.16047 0.583106 3.00966 -1.13639 191 191 191 255 
-0.062111 -0.344956 -1.16262 0.0156159 2.13855 3.53148 191 191 191 255 
-0.068941 -0.348325 -1.1655 -3.14355 4.40726 2.83599 191 191 191 255 
-0.129225 -0.347157 -1.15355 -0.28452 2.9679 -1.35754 191 191 191 255 
-0.112236 -0.352828 -1.16641 -0.0733589 3.13416 -1.35146 191 191 191 255 
-0.101168 -0.350222 -1.15789 0.660841 6.06928 -1.35141 191 191 191 255 
-0.093228 -0.35174 -1.15699 1.84567 5.93311 -0.220158 191 191 191 255 
-0.085544 -0.35235 -1.16645 -0.464565 6.19305 -0.32975 191 191 191 255 
-0.145007 -0.365047 -1.15941 0.0873405 -2.41284 0.924099 191 191 191 255 
-0.144134 -0.36184 -1.15112 0.316481 -3.00346 1.25498 191 191 191 255 
-0.145394 -0.363623 -1.15543 0.36806 -2.58595 0.961501 191 191 191 255 
-0.142007 -0.366394 -1.16314 0.163083 -2.64785 1.14901 191 191 191 255 
-0.115545 -0.363973 -1.16225 0.727398 -5.52728 2.89634 191 191 191 255 
-0.127301 -0.362398 -1.15642 0.619015 -5.64572 2.68274 191 191 191 255 
-0.108746 -0.361565 -1.15953 0.880326 -5.47919 2.94116 191 191 191 255 
-0.076425 -0.358383 -1.16478 1.35005 -4.08972 4.45564 191 191 191 255 
-0.062119 -0.359346 -1.16857 0.410935 -3.12522 5.3908 191 191 191 255 
-0.061491 -0.348426 -1.16402 1.57922 -1.8813 5.73436 191 191 191 255 
-0.097698 -0.366583 -1.17138 0.700667 -5.41735 3.08985 191 191 191 255 
-0.070332 -0.359311 -1.16714 1.027 -3.67426 4.89103 191 191 191 255 
3 1 172 15 
3 168 172 1 
3 168 1 0 
3 8 2 3 
3 4 8 3 
3 4 3 170 
3 170 6 4 
3 170 9 6 
3 7 15 10 
3 16 10 173 
3 5 173 2 
3 5 16 173 
3 8 5 2 
3 9 13 6 
3 21 7 10 
3 16 21 10 
3 15 11 1 
3 8 17 5 
3 14 20 21 
3 28 21 16 
3 11 15 29 
3 29 22 11 
3 23 12 22 
3 29 23 22 
3 5 32 16 
3 12 23 18 
3 24 23 12 
3 23 24 12 
3 32 5 17 
3 20 14 26 
3 14 34 26 
3 28 34 14 
3 15 7 27 
3 21 27 7 
3 21 28 14 
3 27 29 15 
3 30 28 16 
3 30 16 32 
3 38 23 24 
3 23 38 24 
3 32 17 36 
3 24 38 25 
3 24 25 17 
3 19 25 24 
3 38 24 25 
3 25 36 17 
3 20 26 41 
3 34 41 26 
3 29 27 35 
3 49 28 30 
3 29 35 44 
3 37 32 44 
3 35 32 37 
3 35 30 32 
3 20 41 40 
3 40 21 20 
3 51 34 28 
3 51 41 34 
3 42 27 43 
3 27 21 43 
3 21 40 43 
3 49 51 28 
3 35 27 42 
3 42 30 35 
3 45 39 46 
3 45 46 39 
3 55 33 53 
3 46 39 47 
3 55 39 33 
3 47 39 55 
3 50 49 57 
3 57 49 30 
3 37 44 35 
3 52 57 42 
3 57 30 42 
3 39 46 47 
3 59 48 55 
3 62 40 41 
3 62 41 51 
3 50 51 49 
3 42 43 52 
3 58 55 53 
3 54 47 55 
3 59 55 58 
3 48 68 55 
3 68 54 55 
3 61 48 59 
3 68 48 56 
3 40 62 43 
3 72 62 51 
3 72 51 50 
3 43 57 52 
3 57 43 50 
3 43 70 50 
3 70 65 50 
3 50 80 72 
3 50 65 64 
3 50 64 80 
3 74 54 60 
3 66 67 59 
3 66 59 58 
3 68 60 54 
3 67 61 59 
3 63 61 67 
3 76 70 62 
3 43 62 70 
3 62 72 71 
3 54 74 73 
3 81 67 66 
3 68 69 60 
3 60 69 74 
3 76 62 71 
3 63 67 61 
3 70 76 71 
3 79 70 71 
3 70 79 65 
3 95 72 80 
3 86 64 65 
3 80 64 86 
3 75 67 81 
3 69 90 74 
3 74 90 73 
3 68 56 77 
3 77 78 68 
3 79 71 92 
3 84 71 72 
3 79 92 86 
3 65 79 86 
3 72 95 84 
3 86 87 80 
3 87 95 80 
3 73 97 96 
3 82 75 81 
3 90 97 73 
3 82 89 75 
3 92 71 93 
3 71 84 93 
3 85 86 92 
3 95 98 84 
3 85 87 86 
3 98 95 85 
3 90 91 97 
3 97 91 107 
3 94 92 93 
3 98 93 84 
3 94 85 92 
3 98 85 94 
3 95 87 85 
3 97 114 96 
3 107 114 97 
3 107 101 88 
3 101 107 91 
3 82 103 89 
3 103 83 89 
3 98 105 93 
3 104 105 98 
3 103 110 83 
3 105 98 94 
3 105 104 98 
3 146 107 88 
3 100 146 88 
3 105 94 93 
3 110 103 102 
3 106 151 105 
3 104 106 105 
3 151 115 105 
3 105 115 104 
3 115 106 104 
3 112 114 107 
3 113 112 107 
3 113 107 146 
3 146 100 99 
3 108 102 109 
3 148 151 106 
3 102 108 110 
3 108 147 149 
3 108 109 147 
3 150 148 106 
3 111 115 151 
3 153 106 115 
3 150 106 153 
3 115 111 153 
3 116 119 117 
3 118 119 116 
3 120 119 118 
3 120 125 119 
3 121 125 120 
3 123 124 121 
3 121 124 125 
3 122 123 121 
3 126 123 122 
3 128 126 122 
3 126 128 127 
3 129 127 128 
3 136 129 128 
3 136 128 130 
3 129 132 127 
3 131 132 129 
3 129 135 131 
3 135 129 136 
3 133 136 130 
3 136 140 134 
3 136 134 137 
3 136 137 135 
3 141 140 136 
3 141 136 133 
3 140 138 134 
3 138 143 134 
3 139 138 140 
3 139 142 138 
3 167 140 141 
3 168 143 138 
3 144 168 142 
3 168 138 142 
3 142 169 144 
3 169 165 144 
3 169 142 139 
3 140 167 166 
3 149 148 150 
3 150 108 149 
3 150 156 108 
3 111 151 148 
3 111 148 152 
3 153 152 148 
3 157 149 147 
3 154 148 149 
3 154 153 148 
3 155 153 154 
3 155 150 153 
3 156 150 155 
3 153 111 152 
3 149 157 154 
3 158 156 155 
3 161 155 154 
3 160 154 157 
3 160 161 154 
3 161 158 155 
3 159 158 161 
3 159 162 160 
3 162 161 160 
3 159 160 164 
3 161 162 159 
3 164 162 159 
3 163 162 164 
3 144 172 168 
3 165 172 144 
3 169 139 166 
3 170 166 167 
3 171 167 145 
3 2 165 169 
3 166 3 169 
3 169 3 2 
3 166 170 3 
3 170 167 171 
3 15 173 10 
3 15 172 165 
3 173 15 165 
3 2 173 165 
3 174 175 341 
3 175 342 341 
3 194 178 177 
3 177 178 346 
3 176 179 177 
3 177 179 194 
3 181 180 352 
3 183 180 355 
3 355 180 181 
3 182 183 355 
3 350 192 183 
3 182 350 183 
3 184 187 185 
3 184 185 359 
3 187 188 185 
3 188 190 360 
3 185 188 360 
3 190 189 362 
3 360 190 362 
3 190 366 189 
3 191 363 366 
3 202 363 191 
3 203 367 202 
3 367 363 202 
3 364 367 203 
3 186 364 205 
3 364 203 205 
3 193 195 194 
3 194 195 178 
3 207 352 180 
3 206 183 192 
3 196 210 197 
3 207 210 196 
3 198 207 180 
3 219 198 180 
3 199 190 211 
3 190 188 211 
3 201 190 199 
3 366 190 201 
3 200 366 201 
3 213 191 200 
3 191 366 200 
3 213 214 202 
3 213 202 191 
3 202 214 203 
3 214 204 203 
3 203 204 205 
3 208 209 210 
3 210 209 197 
3 207 217 210 
3 210 217 208 
3 207 198 217 
3 217 198 215 
3 219 215 198 
3 225 213 200 
3 201 225 200 
3 226 213 225 
3 213 226 214 
3 226 227 214 
3 216 215 220 
3 216 217 215 
3 220 215 218 
3 215 219 218 
3 229 225 224 
3 226 225 229 
3 229 227 226 
3 228 229 231 
3 229 224 231 
3 234 237 235 
3 237 236 235 
3 237 239 236 
3 237 238 239 
3 239 240 236 
3 243 238 237 
3 237 241 242 
3 241 246 242 
3 243 237 242 
3 243 244 238 
3 244 243 245 
3 246 247 242 
3 247 248 243 
3 242 247 243 
3 250 245 243 
3 250 243 248 
3 250 248 262 
3 249 245 250 
3 249 250 254 
3 251 254 250 
3 255 251 250 
3 259 255 250 
3 259 250 258 
3 252 250 262 
3 249 254 265 
3 254 256 257 
3 254 257 265 
3 256 255 259 
3 256 259 257 
3 276 259 258 
3 263 260 261 
3 267 262 260 
3 262 261 260 
3 267 269 252 
3 267 252 262 
3 257 274 265 
3 266 274 259 
3 259 274 257 
3 266 259 276 
3 267 260 263 
3 272 277 276 
3 277 275 276 
3 282 277 272 
3 263 268 267 
3 279 267 268 
3 267 279 269 
3 270 271 279 
3 271 269 279 
3 272 271 270 
3 272 270 281 
3 282 272 281 
3 284 273 266 
3 266 273 274 
3 284 266 276 
3 275 286 284 
3 276 275 284 
3 278 286 277 
3 277 286 275 
3 282 278 277 
3 292 278 282 
3 270 279 288 
3 280 270 288 
3 289 281 280 
3 281 270 280 
3 282 281 291 
3 281 289 291 
3 292 282 291 
3 283 296 285 
3 297 283 285 
3 284 297 285 
3 284 286 297 
3 297 286 299 
3 287 299 278 
3 278 299 286 
3 292 300 278 
3 300 287 278 
3 293 304 288 
3 288 304 280 
3 304 290 289 
3 280 304 289 
3 290 295 291 
3 289 290 291 
3 292 291 295 
3 292 295 294 
3 300 292 306 
3 292 294 306 
3 317 295 290 
3 294 295 317 
3 306 294 317 
3 283 308 296 
3 299 308 297 
3 297 308 283 
3 298 310 287 
3 287 310 299 
3 301 311 300 
3 300 306 301 
3 301 306 315 
3 307 314 306 
3 314 315 306 
3 305 293 302 
3 293 303 302 
3 304 293 305 
3 316 304 305 
3 290 304 316 
3 317 290 316 
3 318 306 317 
3 322 306 318 
3 322 307 306 
3 322 324 307 
3 314 324 323 
3 307 324 314 
3 328 309 308 
3 308 309 296 
3 328 299 327 
3 328 308 299 
3 299 310 327 
3 310 329 327 
3 311 301 312 
3 312 301 348 
3 315 348 301 
3 315 314 313 
3 319 320 316 
3 305 319 316 
3 320 336 316 
3 336 337 317 
3 316 336 317 
3 337 321 317 
3 321 322 318 
3 317 321 318 
3 331 313 323 
3 323 313 314 
3 322 321 339 
3 322 339 324 
3 323 324 331 
3 324 339 331 
3 326 325 343 
3 345 325 326 
3 328 345 326 
3 328 327 345 
3 345 327 346 
3 351 346 329 
3 329 346 327 
3 348 330 312 
3 354 315 313 
3 350 334 349 
3 353 348 315 
3 354 353 315 
3 331 333 354 
3 313 331 354 
3 332 333 331 
3 335 332 331 
3 335 334 350 
3 335 365 334 
3 361 320 357 
3 320 319 357 
3 336 320 361 
3 360 337 361 
3 337 336 361 
3 362 321 360 
3 321 337 360 
3 338 339 362 
3 339 321 362 
3 331 339 338 
3 331 338 340 
3 335 331 340 
3 341 342 325 
3 325 342 343 
3 344 341 345 
3 345 341 325 
3 344 345 346 
3 351 347 176 
3 351 177 346 
3 176 177 351 
3 348 353 352 
3 354 181 353 
3 353 181 352 
3 354 333 181 
3 181 333 355 
3 182 355 332 
3 332 355 333 
3 350 182 335 
3 335 182 332 
3 359 357 356 
3 357 358 356 
3 185 361 359 
3 361 357 359 
3 360 361 185 
3 189 338 362 
3 189 363 338 
3 338 363 340 
3 363 367 335 
3 340 363 335 
3 367 364 365 
3 335 367 365 
3 186 365 364 
3 363 189 366 
