ply
format ascii 1.0
comment VCGLIB generated
element vertex 470
property float x
property float y
property float z
property float nx
property float ny
property float nz
element face 572
property list uchar int vertex_indices
end_header
0.0641225 -0.36675 -1.13663 1.14436 2.30985 -0.909922 
0.0631188 -0.26 -1.14279 -1.27312 -0.876999 2.5663 
0.0675418 -0.260345 -1.14085 -0.905875 -0.646238 2.39668 
0.0662195 -0.25435 -1.13972 -0.942886 -0.716178 2.69624 
0.070254 -0.258958 -1.13956 -0.65548 -0.325286 1.72793 
0.0697942 -0.256544 -1.13928 -0.659073 -0.490328 2.13266 
0.0611672 -0.368436 -1.14382 0.340231 0.678171 -0.298872 
0.0535214 -0.247891 -1.15522 -1.49853 2.91825 -0.382773 
0.0525913 -0.258839 -1.15357 -3.17216 -1.28457 0.28575 
0.0541171 -0.248578 -1.16273 -2.52056 1.96245 -0.201752 
0.0431904 -0.265099 -1.16571 2.90474 1.8291 0.856111 
0.0513293 -0.253846 -1.15993 -5.97765 0.287474 -0.0113602 
0.0490184 -0.255318 -1.16935 -4.65937 2.57614 2.84039 
0.0420935 -0.266771 -1.16208 2.71542 0.555089 0.833211 
0.0610927 -0.265004 -1.16267 -1.19705 -2.85849 -0.755977 
0.0658597 -0.266022 -1.16241 -0.315496 -2.75377 -0.0377922 
0.0695335 -0.265845 -1.16351 0.285379 -2.12952 0.0398317 
0.0679156 -0.266166 -1.16908 -0.00413799 -2.71266 0.464744 
0.0702672 -0.265486 -1.16609 0.696529 -2.03478 -0.0850519 
0.0393409 -0.24884 -1.17542 1.46099 -1.80082 1.05456 
0.0331589 -0.252731 -1.1735 -0.426519 2.39157 1.7586 
0.0363341 -0.250089 -1.17394 1.46777 -1.47465 1.73737 
0.0508697 -0.251706 -1.1752 -0.898017 5.85724 1.2274 
0.0586357 -0.250329 -1.17559 -0.298689 3.19295 -0.115758 
0.0562058 -0.249584 -1.16958 -0.577163 3.11777 -0.629201 
0.0537124 -0.26071 -1.15914 -2.97402 -1.74484 0.848353 
0.0487494 -0.261712 -1.16703 -2.91091 -1.42774 4.26005 
0.0444436 -0.265043 -1.16799 1.20874 0.729657 3.02194 
0.0501457 -0.270054 -1.17619 0.976588 -1.91417 1.19261 
0.0466209 -0.267052 -1.17119 1.7018 -1.52578 2.11579 
0.0572987 -0.269045 -1.17377 -0.378638 -2.5694 1.66131 
0.0634316 -0.267682 -1.17164 0.1107 -2.6142 1.35417 
0.0568266 -0.263005 -1.16232 -1.05568 -3.39448 1.22094 
0.0434707 -0.248453 -1.1843 0.709196 3.16202 0.564065 
0.0720546 -0.244449 -1.18818 -1.67355 1.60474 -0.206622 
0.0417646 -0.248779 -1.17888 0.756377 2.64458 1.8278 
0.0502573 -0.269745 -1.18193 2.25069 -1.42265 0.141865 
0.0457034 -0.277457 -1.18349 5.53543 -2.47479 0.708601 
0.0470735 -0.274876 -1.17925 2.33237 -1.40881 0.0325722 
0.0455556 -0.277855 -1.18351 2.18421 -0.970589 0.345407 
0.0220814 -0.294798 -1.17986 0.196242 -2.04095 2.62465 
0.0198499 -0.30048 -1.18482 0.0276597 -2.71886 1.93452 
0.0204305 -0.297418 -1.18084 0.000411619 -2.02405 2.80229 
0.0698641 -0.246727 -1.18813 -1.86574 2.61275 0.265332 
0.0507186 -0.250257 -1.1833 0.758318 6.14269 0.749345 
0.0514913 -0.249735 -1.19093 1.22008 5.97983 0.870113 
0.0642068 -0.250119 -1.18517 -0.521416 3.30841 0.455628 
0.0612291 -0.250595 -1.18089 0.0308341 3.28447 0.0626361 
0.0498637 -0.271874 -1.18651 2.0677 -1.24 0.491581 
0.0490214 -0.27178 -1.18273 5.24105 -3.31901 0.687878 
0.00761805 -0.275108 -1.19383 -2.62605 1.2927 0.126017 
0.0482632 -0.275471 -1.18848 1.89263 -1.18403 0.465054 
0.0462248 -0.277984 -1.18726 1.61568 -1.15136 0.327919 
0.0240806 -0.292802 -1.17929 1.52494 -1.45781 -0.243699 
0.0738823 -0.242879 -1.19079 -1.92808 1.64341 -0.535157 
0.0446313 -0.247249 -1.19066 1.08374 2.99776 0.672079 
0.051589 -0.248023 -1.1986 1.69331 5.94481 0.937205 
0.0672184 -0.24877 -1.1877 -1.39426 3.19375 0.671851 
0.0583153 -0.250162 -1.1916 -0.148714 6.16871 0.620803 
0.00705886 -0.27758 -1.19811 -2.28281 1.36993 -0.516506 
0.0204283 -0.30443 -1.19071 -0.362562 -2.84659 1.63168 
0.0463942 -0.244377 -1.20535 2.04198 1.90858 0.324633 
0.0453899 -0.244022 -1.20112 2.25477 1.45639 0.507309 
0.0451815 -0.245396 -1.19644 1.54455 2.66603 0.703904 
0.0756144 -0.242903 -1.19657 -1.09488 2.82036 0.290616 
0.0815743 -0.240752 -1.2085 -0.884778 -0.65953 2.53451 
0.048606 -0.245995 -1.20975 0.807191 2.92937 0.0797185 
0.0589843 -0.249459 -1.19828 -0.287797 5.97918 1.08699 
0.0675091 -0.245812 -1.20268 -2.1134 5.58467 1.62765 
0.0121371 -0.307947 -1.19818 0.911012 -5.80537 2.07555 
0.0174855 -0.30793 -1.19895 -0.474786 -6.09596 0.802346 
0.0235915 -0.303767 -1.20482 0 0 1.11759e-08 
0.0220882 -0.308752 -1.1961 -1.6375 -2.60889 0.694011 
0.023741 -0.312285 -1.20012 -2.72572 -0.968365 0.0858408 
0.0238214 -0.314486 -1.20362 -2.55535 -0.364383 0.544525 
0.0812206 -0.231337 -1.21022 -1.50741 1.07625 2.04447 
0.0732196 -0.228796 -1.21835 -1.63267 1.30602 2.05652 
0.0818487 -0.236526 -1.20767 -1.38169 0.361735 2.15019 
0.0790426 -0.23809 -1.20921 -2.44859 0.645798 5.68267 
0.0586123 -0.241706 -1.21721 -1.40108 2.145 1.91401 
0.065974 -0.240683 -1.21413 -1.93822 4.68337 3.65711 
0.0774162 -0.243931 -1.20348 1.91318 2.49394 0.218483 
0.0738026 -0.240522 -1.21075 -1.55169 4.01408 3.87671 
0.0512047 -0.247098 -1.21374 -0.39464 2.71158 -0.00955907 
0.064051 -0.248105 -1.19883 -1.97212 5.72766 1.30328 
0.0579994 -0.247091 -1.20653 -0.988521 5.90159 1.66817 
0.0650998 -0.243558 -1.2098 -1.82919 5.41951 2.56233 
0.0793442 -0.227421 -1.21442 -1.38232 1.20141 1.73386 
0.0764592 -0.226678 -1.21725 -1.25307 1.10279 1.56694 
0.0696394 -0.232111 -1.21907 -1.61418 1.44277 2.26627 
0.061623 -0.238663 -1.21871 -1.10376 1.9397 1.90411 
0.0655398 -0.235487 -1.21949 -1.2207 1.74418 2.06935 
0.0806359 -0.243297 -1.21012 -0.164567 0.0944517 2.20094 
0.0791708 -0.244332 -1.2087 1.19258 2.40297 1.34305 
0.0561573 -0.244527 -1.21645 -1.39984 2.67996 1.0465 
0.0537124 -0.246568 -1.21593 -1.47147 1.421 -1.34104 
0.30508 -0.117345 -1.45002 0.250078 -1.81991 -1.78042 
0.313904 -0.120889 -1.44869 -0.958603 -0.78677 -1.94454 
0.312706 -0.123038 -1.44723 -0.451883 -1.94043 -2.4313 
0.313069 -0.118463 -1.44926 -0.225461 -0.914645 -2.10163 
0.309429 -0.117031 -1.4498 -0.128617 -1.30694 -2.3625 
0.296755 -0.123506 -1.44464 -0.24153 2.07775 1.8223 
0.292699 -0.124802 -1.4437 0.0309829 -0.957938 -2.98208 
0.301951 -0.119169 -1.4488 0.634628 -2.15607 -1.59585 
0.311637 -0.12645 -1.44093 1.35949 -2.03772 -0.96103 
0.30579 -0.131417 -1.43811 0.817957 -1.76268 -2.16694 
0.299678 -0.12157 -1.44646 -0.0326106 -1.97674 -2.72796 
0.31192 -0.12462 -1.44441 0.0512283 -2.62866 -1.97789 
0.28848 -0.126133 -1.44293 -0.395608 0.0846514 -2.91088 
0.28219 -0.130257 -1.44308 0.0990565 0.0393484 -3.16105 
0.301186 -0.134083 -1.43898 0.791751 -1.06821 -2.80624 
0.292303 -0.138606 -1.44128 0.608015 -0.236034 -3.02192 
0.287257 -0.132594 -1.44278 0.592231 -0.742111 -6.17289 
0.287769 -0.140223 -1.44145 0.0546417 -0.737137 -3.28382 
0.309769 -0.128847 -1.43849 1.17939 -1.94788 -0.962319 
0.285032 -0.128005 -1.44261 -1.18826 1.87837 -1.81528 
0.296794 -0.136675 -1.44014 0.664589 0.188543 -2.9375 
0.279414 -0.132351 -1.44321 -0.0050262 -0.65196 -3.15895 
0.274127 -0.140158 -1.44396 -2.13612 -0.587148 -4.97274 
0.267446 -0.139708 -1.43787 -2.21006 -0.863676 -2.10078 
0.275808 -0.140104 -1.4441 1.55681 1.62179 -5.24721 
0.273465 -0.135411 -1.44249 -0.0549666 0.476868 -2.95517 
0.270384 -0.137314 -1.44183 -1.70966 -0.414943 -2.4504 
0.27554 -0.140889 -1.44424 0.0740582 -1.19796 -5.02752 
0.283652 -0.142683 -1.44034 0.427837 -0.910583 -3.04205 
0.275309 -0.148395 -1.43952 -0.613202 -1.11999 -2.6926 
0.270791 -0.150124 -1.43807 -1.64229 -0.478648 -2.53878 
0.0601754 -0.284071 -1.15366 2.02204 -1.21323 -1.82687 
0.0564522 -0.282642 -1.15873 0.423927 -3.19103 -0.96688 
0.0635251 -0.286484 -1.14835 0.0681664 -2.03625 -0.923356 
0.0659426 -0.286579 -1.14873 0.0346787 -0.969278 0.462917 
0.0658999 -0.286528 -1.14862 0.0651675 -1.82144 0.869903 
0.0650923 -0.25738 -1.14342 -1.83184 2.40825 0.473978 
0.05939 -0.260677 -1.14904 -3.57402 5.07006 0.898087 
0.0538229 -0.285932 -1.14971 0.233057 -5.87504 -2.15194 
0.060515 -0.289703 -1.14224 -0.301794 -2.9052 -1.58157 
0.276517 -0.133959 -1.44265 0.0489702 -0.787844 -3.12676 
0.279713 -0.145835 -1.43955 1.04163 -1.81602 -2.052 
0.264268 -0.142245 -1.4308 -2.67387 -0.431672 -1.55627 
0.262911 -0.149983 -1.42607 -4.77546 -1.95301 -3.51478 
0.267655 -0.15176 -1.43398 -2.61764 -0.90975 -1.64803 
0.26036 -0.145027 -1.42412 -2.30103 -0.358219 -1.88127 
0.256136 -0.148336 -1.41973 -1.56616 -1.46104 -2.13341 
0.268451 -0.154727 -1.42338 -0.533076 2.82772 0.863108 
0.267006 -0.1534 -1.42862 -2.08171 -2.44716 -1.02148 
0.252353 -0.15195 -1.41634 -0.825122 -1.93296 -2.27175 
0.271633 -0.157925 -1.40763 0.116453 -2.5865 -0.786015 
0.272114 -0.156971 -1.41292 -0.184798 -2.73521 -0.51007 
0.270646 -0.155876 -1.41826 -0.713484 -2.88529 -0.463028 
0.260582 -0.153406 -1.41809 -1.8389 -5.10693 -2.83258 
0.265501 -0.160839 -1.39885 0.756356 -3.20166 -0.911386 
0.268978 -0.159031 -1.40302 1.74395 -2.32234 0.447221 
0.256361 -0.160825 -1.40578 0.68211 -5.03779 -3.49635 
0.249358 -0.160653 -1.40587 -1.63499 -3.9592 -4.31711 
0.24884 -0.155179 -1.41183 -0.789352 -2.35823 -1.90882 
0.255756 -0.173815 -1.40773 0.608394 2.34335 0.181774 
0.258256 -0.174779 -1.40367 1.20607 2.50468 -0.713955 
0.253084 -0.17306 -1.40852 0.561887 1.96026 0.09559 
0.256369 -0.165617 -1.40108 2.9369 -2.15757 -4.83348 
0.236711 -0.168268 -1.38994 -2.43014 -1.03279 -2.2556 
0.256247 -0.171405 -1.40053 2.69382 1.59634 -4.58035 
0.248641 -0.164562 -1.40276 -1.79152 -2.83419 -4.98228 
0.247318 -0.171582 -1.39931 -1.32773 -0.36158 -2.72172 
0.250365 -0.172382 -1.4055 0.817035 2.74488 0.0722696 
0.245018 -0.157277 -1.4049 -2.10978 -1.45811 -1.9646 
0.263511 -0.163188 -1.39396 2.59907 -1.8035 -1.58942 
0.243069 -0.170503 -1.39094 -0.877706 -2.20418 -0.125624 
0.262005 -0.171471 -1.38956 5.83079 -0.736889 -1.90725 
0.262342 -0.175865 -1.39026 2.77874 0.599857 -0.907761 
0.260492 -0.175654 -1.39744 2.27675 1.88403 -0.537065 
0.241205 -0.158045 -1.39594 -2.80345 0.724411 -1.37408 
0.228931 -0.166603 -1.38321 -2.9354 -0.288266 -2.70846 
0.2682 -0.165746 -1.38183 0.286859 -3.18204 -0.465916 
0.264603 -0.165052 -1.388 3.03768 -1.42151 -0.819173 
0.263554 -0.175153 -1.38331 2.7731 0.836763 -0.569317 
0.233943 -0.162022 -1.38707 -4.38852 3.69702 -2.44941 
0.237865 -0.158139 -1.38708 -2.01855 2.03673 -0.815399 
0.2739 -0.165342 -1.37166 0.532567 -2.2254 -0.0918489 
0.272604 -0.165764 -1.36895 0.792213 -1.85055 -0.103095 
0.269045 -0.167544 -1.36903 1.36835 -2.13036 -0.320156 
0.272048 -0.165597 -1.37622 0.850331 -2.79321 -0.36116 
0.242781 -0.171165 -1.38406 -0.283224 -0.303753 -0.0613632 
0.242742 -0.170662 -1.38637 -2.02739 -2.12504 -0.303249 
0.2434 -0.171324 -1.38613 -1.85386 -1.9566 -0.3144 
0.265789 -0.170482 -1.37203 2.11692 -1.70416 -0.342969 
0.263347 -0.171511 -1.38199 5.85276 -1.07263 -1.22362 
0.264281 -0.173344 -1.37711 2.84123 -0.179284 -0.622969 
0.246558 -0.176191 -1.36962 -0.910832 -1.77797 -0.39999 
0.234263 -0.158763 -1.38069 -1.45992 2.00309 -0.842036 
0.229754 -0.160901 -1.37756 -1.71904 1.96401 -0.642133 
0.231169 -0.160506 -1.38014 -3.43509 4.90249 -1.63677 
0.225804 -0.165044 -1.38089 -1.75185 1.66549 -1.01781 
0.226803 -0.171947 -1.37806 -1.8339 0.109949 -2.14159 
0.223183 -0.173518 -1.3761 -1.6085 0.275307 -2.60294 
0.225577 -0.164542 -1.37663 -3.0373 1.53887 -1.78625 
0.228673 -0.169494 -1.38088 -2.4218 -0.366249 -1.33745 
0.248898 -0.177509 -1.36909 -0.805623 -1.75097 -0.257935 
0.249663 -0.178454 -1.36281 -1.18969 -2.54627 -0.195185 
0.247396 -0.177683 -1.35721 -2.67228 -5.42856 -0.881447 
0.242886 -0.175338 -1.36505 -1.0035 -2.94919 -0.382645 
0.220184 -0.175399 -1.37196 2.99774 -1.70602 -0.502338 
0.22034 -0.174537 -1.37441 -1.89896 0.0235903 -2.6419 
0.210828 -0.182817 -1.36521 -1.31767 -0.585108 -2.7888 
0.220724 -0.166758 -1.36518 -2.18691 1.9983 -0.726295 
0.213261 -0.176785 -1.36763 -4.38176 1.66658 -3.67481 
0.245646 -0.178281 -1.35106 -2.33281 -1.75028 -2.35372 
0.227994 -0.176648 -1.3596 1.49387 -2.73731 -1.74199 
0.22466 -0.176622 -1.3638 -1.20148 2.53912 0.969441 
0.222052 -0.176138 -1.3683 1.48553 -2.58724 -1.24827 
0.205235 -0.184908 -1.36317 -1.81019 0.616668 -2.21056 
0.208948 -0.17745 -1.36275 -3.81471 3.04928 -3.46693 
0.211556 -0.171332 -1.35192 -1.58204 2.40675 -0.659591 
0.24809 -0.178783 -1.35446 -1.48347 -2.17705 -0.643514 
0.243585 -0.17897 -1.34901 -0.0777399 -2.09496 -0.900761 
0.237967 -0.175424 -1.35969 -0.0831771 -3.30929 -1.11293 
0.236406 -0.179447 -1.34923 0.441811 -2.46238 -0.881126 
0.232581 -0.17611 -1.35763 -0.493743 -1.501 -2.91997 
0.218526 -0.181357 -1.36162 1.43516 -2.71662 -1.36327 
0.216544 -0.168943 -1.35697 -1.12274 2.59666 0.119446 
0.22756 -0.180275 -1.35464 1.00508 -2.44328 -1.52015 
0.197403 -0.178967 -1.35336 -2.5906 2.57659 -2.19961 
0.201381 -0.187312 -1.35745 -2.46461 -0.755723 -1.76405 
0.198409 -0.189376 -1.35109 -2.56248 -1.00302 -1.4855 
0.195574 -0.180442 -1.35228 -2.71352 -0.496539 -1.93588 
0.201977 -0.176625 -1.34574 -1.17152 2.13575 0.162483 
0.206283 -0.174083 -1.34815 -1.43235 2.66466 -0.0101872 
0.198091 -0.178415 -1.35023 -1.44002 2.74425 -0.0467411 
0.199236 -0.178072 -1.34653 -1.02268 1.8585 0.144195 
0.195786 -0.191109 -1.34534 -2.71089 -0.739868 -1.36591 
0.192794 -0.181822 -1.34636 -2.81864 -1.04025 -1.13625 
0.213287 -0.171154 -1.33279 -1.10693 1.8034 0.429689 
0.210211 -0.172942 -1.33321 -1.20025 2.12286 0.373679 
0.190897 -0.182076 -1.33797 -3.09495 0.0323959 -0.853014 
0.192602 -0.192977 -1.33961 -2.59613 -0.286288 -1.67613 
0.188903 -0.189234 -1.33452 -5.07888 1.03037 -3.33183 
0.187478 -0.195192 -1.33302 -2.18604 -0.197797 -2.24721 
0.215161 -0.170821 -1.32936 -1.17143 2.14471 0.387483 
0.214714 -0.172152 -1.32406 -0.946194 2.51354 0.551426 
0.211196 -0.174933 -1.31742 -1.16899 2.65385 0.375801 
0.206611 -0.175364 -1.33052 -1.32433 2.68891 0.374762 
0.183631 -0.19397 -1.32992 -4.511 -0.534782 -4.02625 
0.19814 -0.178854 -1.32457 -1.09738 3.59472 0.495567 
0.202572 -0.17741 -1.32681 -1.14915 3.16772 0.362112 
0.191277 -0.181315 -1.33023 -2.79899 2.02075 -0.137189 
0.184256 -0.189527 -1.32929 -4.41558 3.20638 -2.08742 
0.183247 -0.191675 -1.32921 -4.95413 1.24298 -3.23336 
0.205075 -0.178558 -1.31046 -1.06201 2.75018 0.44704 
0.193991 -0.180114 -1.32548 -1.9062 3.32326 0.576767 
0.202109 -0.178941 -1.31515 -2.28871 5.77967 0.901374 
0.19145 -0.184323 -1.31095 -3.08737 5.41519 0.551767 
0.181241 -0.197816 -1.32597 -2.6739 0.111715 -1.75789 
0.177084 -0.193097 -1.31671 -3.73987 4.47123 -1.60956 
0.1769 -0.200808 -1.31927 -2.1456 -1.59199 -1.97502 
0.197962 -0.182127 -1.30475 -1.208 2.86033 0.30868 
0.191867 -0.184959 -1.30011 -1.52229 3.09213 0.162602 
0.165707 -0.199102 -1.30812 -3.90964 0.672938 -2.46603 
0.168826 -0.196756 -1.31035 -3.68956 4.31069 -1.82774 
0.172714 -0.196845 -1.31617 -4.09525 2.40292 -3.08886 
0.175262 -0.20376 -1.31207 -1.3689 -2.63504 -1.13795 
0.176153 -0.192212 -1.30888 -2.79544 5.49432 -0.605056 
0.173444 -0.19351 -1.29821 -2.40586 5.78098 0.0965943 
0.169073 -0.201279 -1.31037 -3.39434 -3.91586 -3.02915 
0.166969 -0.204645 -1.30295 -1.474 -5.26798 -2.78441 
0.174425 -0.20618 -1.30273 -0.742137 -2.89717 -0.887393 
0.158948 -0.20305 -1.30105 -2.60319 -2.28013 -4.20087 
0.188244 -0.187151 -1.29465 -1.7396 3.0623 0.388979 
0.187088 -0.18912 -1.2871 -1.30375 3.03851 0.398235 
0.165231 -0.197087 -1.29697 -2.73763 5.58349 -0.453779 
0.16109 -0.201239 -1.30402 -2.2131 0.108657 -2.54188 
0.149887 -0.205491 -1.29918 -0.400746 -0.164956 -1.1999 
0.162999 -0.207315 -1.29544 -0.10907 -5.67686 -2.62765 
0.149855 -0.205535 -1.2991 -2.43066 -2.63921 -2.67048 
0.187339 -0.190786 -1.27782 -0.924431 3.03333 0.469036 
0.1615 -0.198243 -1.2869 -2.03116 5.91403 0.0139437 
0.157254 -0.201719 -1.29868 -2.72513 4.9808 -2.30096 
0.173502 -0.208204 -1.29168 0.127351 -3.03614 -0.864294 
0.1477 -0.208877 -1.29135 -2.37187 -4.18856 -3.1865 
0.182398 -0.191814 -1.28091 -1.96427 5.91515 0.768054 
0.172675 -0.195306 -1.2764 -2.00744 5.90324 0.674714 
0.153356 -0.2012 -1.29099 -2.37351 5.62208 -0.836952 
0.158125 -0.200017 -1.2769 -1.83512 5.98476 0.443188 
0.151082 -0.201881 -1.28341 -2.29671 5.78082 0.0731807 
0.146275 -0.204523 -1.28644 -3.79519 4.367 -1.42963 
0.148258 -0.20425 -1.29163 -4.15537 4.00466 -1.34186 
0.172856 -0.21041 -1.28089 0.590176 -3.03271 -0.62928 
0.16676 -0.212059 -1.27866 1.1649 -6.01338 -1.39336 
0.160776 -0.210941 -1.28713 0.641345 -5.80454 -2.22758 
0.152082 -0.213884 -1.28379 0.820268 -5.5525 -2.55959 
0.188045 -0.191862 -1.26856 -0.919963 2.92384 0.416177 
0.171453 -0.196746 -1.26934 -1.8868 5.93528 0.814432 
0.142542 -0.205864 -1.27874 -3.18506 5.19981 -0.717777 
0.14613 -0.207864 -1.28974 -5.11853 0.403319 -3.05407 
0.138946 -0.209633 -1.27962 -4.41138 3.08724 -2.92107 
0.164097 -0.214372 -1.27073 1.04659 -6.07869 -1.18522 
0.17247 -0.212699 -1.27142 0.555394 -3.03717 -0.660673 
0.158657 -0.213358 -1.28104 1.19782 -5.96603 -1.48485 
0.14416 -0.213973 -1.28491 -0.27172 -4.29573 -4.23808 
0.149458 -0.217245 -1.27587 2.86349 -5.22582 -1.84796 
0.140475 -0.214795 -1.28324 -2.65181 -0.877113 -4.93001 
0.13793 -0.224502 -1.28237 0.151977 0.566832 -2.48799 
0.134591 -0.225481 -1.28353 -0.46937 1.98148 -0.321248 
0.188194 -0.19258 -1.26157 -0.915224 2.4662 0.27283 
0.182015 -0.19561 -1.25576 -1.09606 3.06019 0.379715 
0.176591 -0.197967 -1.25215 -1.02143 3.31606 0.476257 
0.135139 -0.20856 -1.26577 -1.40557 3.40584 -0.0939754 
0.135069 -0.216293 -1.27966 -3.90365 1.96297 -4.25776 
0.131925 -0.210529 -1.26923 -2.26835 2.96617 -1.46469 
0.172237 -0.214295 -1.26364 0.540226 -2.9356 -0.507269 
0.140928 -0.223067 -1.27732 2.15979 -2.03046 -1.5138 
0.149001 -0.219308 -1.26855 2.90557 -5.2345 -1.67777 
0.128441 -0.226689 -1.27437 -3.04384 0.115436 -1.34947 
0.131195 -0.225778 -1.2804 -1.93183 1.0711 -1.95074 
0.186355 -0.193674 -1.25785 -0.907906 2.31806 0.248923 
0.165309 -0.201321 -1.25359 -1.99692 5.80604 1.26784 
0.16651 -0.199151 -1.26225 -1.70739 5.973 0.906937 
0.144073 -0.205283 -1.26306 -1.90798 5.96558 0.287866 
0.168628 -0.216042 -1.25494 1.06307 -2.77769 -0.116781 
0.171386 -0.215119 -1.25818 0.487713 -2.5317 -0.306059 
0.16519 -0.217534 -1.25195 1.31201 -3.52197 -0.774632 
0.14367 -0.222508 -1.27025 1.88761 -2.67497 -0.714264 
0.127095 -0.213248 -1.26792 -2.62418 1.17291 -2.01449 
0.126615 -0.229148 -1.26766 -2.72633 -0.916138 -1.5929 
0.163471 -0.203772 -1.24311 -1.57308 2.96817 0.294874 
0.136804 -0.207846 -1.25911 1.74238 -2.36008 -0.182576 
0.137459 -0.207979 -1.25114 -0.772691 3.13384 0.273886 
0.145676 -0.223687 -1.26311 1.69107 -2.76491 -0.971634 
0.125402 -0.222455 -1.26811 -5.20576 0.140455 -3.41799 
0.164567 -0.219086 -1.24627 1.39014 -3.21736 -0.746902 
0.150317 -0.223933 -1.25155 2.76213 -5.54598 -0.921938 
0.167357 -0.220017 -1.23754 0.277126 -1.54074 0.0838006 
0.146191 -0.225933 -1.2562 2.43793 1.6693 0.360884 
0.125148 -0.232425 -1.26195 -1.90878 -1.4441 -1.81862 
0.120263 -0.226081 -1.26097 -4.66373 -1.21265 -3.93271 
0.169267 -0.201207 -1.23876 -0.571941 1.28577 0.00410413 
0.172153 -0.199904 -1.24585 -1.16962 3.15211 0.292331 
0.158658 -0.206877 -1.24533 -0.747889 3.32398 1.51412 
0.14601 -0.206774 -1.24478 -0.56965 6.06305 1.22747 
0.1507 -0.204011 -1.2584 -1.37667 6.02934 0.989301 
0.155394 -0.21032 -1.24413 1.04293 0.854637 2.87314 
0.1225 -0.215235 -1.26267 -2.81889 0.72149 -1.65781 
0.1226 -0.216057 -1.24906 -1.14235 2.92242 0.449033 
0.161625 -0.219796 -1.23602 0.645532 -2.76079 1.16514 
0.118546 -0.223078 -1.25911 -4.72637 1.05974 -3.71548 
0.112799 -0.230592 -1.2552 0.915665 1.50568 1.87754 
0.116672 -0.23291 -1.25523 -1.43332 -1.0846 -2.44883 
0.120317 -0.234942 -1.25573 -1.07515 -1.5803 -1.47455 
0.123189 -0.234826 -1.25791 -1.08319 -1.66664 -1.51573 
0.170665 -0.200719 -1.23431 -0.288749 0.628592 0.0217795 
0.170706 -0.200696 -1.23443 -1.01451 2.20853 0.0765215 
0.153815 -0.213268 -1.24068 1.35697 2.44999 2.01674 
0.144374 -0.207899 -1.24085 0.431621 5.55772 2.12593 
0.143523 -0.208988 -1.23711 0.963192 5.75913 1.38308 
0.137444 -0.208764 -1.2428 -0.529668 3.01798 0.476406 
0.11386 -0.21988 -1.24712 -2.57991 5.25609 -1.25409 
0.120873 -0.215909 -1.25589 -2.59566 2.1171 -0.755477 
0.104476 -0.222415 -1.24514 -2.35257 1.16836 -2.31146 
0.106297 -0.221131 -1.2453 -1.08863 2.53955 -2.06207 
0.171009 -0.22008 -1.23443 0.239985 -1.16304 -0.305365 
0.171067 -0.220026 -1.23459 0.367938 -1.78314 -0.468177 
0.146893 -0.226774 -1.24024 1.57725 -2.42316 0.0640601 
0.148315 -0.225928 -1.24325 3.1203 -5.44376 -0.142596 
0.146005 -0.227326 -1.2485 1.67633 -2.33092 -0.275317 
0.10926 -0.230223 -1.25377 -2.10019 1.11985 -2.38856 
0.154145 -0.215697 -1.23716 2.12925 3.10054 0.656029 
0.137798 -0.209907 -1.23513 0.197907 2.79069 0.406735 
0.163585 -0.21857 -1.22041 1.06872 0.0486849 -1.58702 
0.155786 -0.218549 -1.22432 4.47123 0.297658 -3.27681 
0.156814 -0.21809 -1.23554 2.46492 0.904085 2.13717 
0.149626 -0.212858 -1.22423 1.24641 2.70692 -0.0545433 
0.123419 -0.217836 -1.2387 -0.517566 1.99081 0.39276 
0.122308 -0.217095 -1.24392 -1.93841 5.88179 1.0289 
0.12457 -0.216623 -1.24287 -0.721014 2.39359 0.477273 
0.113141 -0.219946 -1.23957 -0.376783 2.796 -0.0607501 
0.11884 -0.219154 -1.23773 -0.663056 2.51504 0.267015 
0.108765 -0.220374 -1.24277 0.953101 2.25872 -1.60551 
0.16338 -0.219019 -1.21967 0.375663 -2.7416 0.291773 
0.149143 -0.225037 -1.23305 1.66737 -2.38233 0.381486 
0.153892 -0.220848 -1.22464 1.81329 -2.01169 -0.159782 
0.151744 -0.223098 -1.22784 2.48689 -1.29266 -0.760442 
0.105941 -0.232597 -1.25011 -2.56861 0.529754 -1.86113 
0.101955 -0.224109 -1.24197 -2.5777 0.504522 -1.75998 
0.0999931 -0.232182 -1.24142 -4.75065 1.42704 -3.7994 
0.14794 -0.212234 -1.22701 1.9038 5.90011 0.395644 
0.139982 -0.210897 -1.2294 0.104833 2.53952 0.548563 
0.144375 -0.211697 -1.22598 0.454037 2.76415 0.130367 
0.15483 -0.217956 -1.22331 -1.84756 -0.841064 3.40636 
0.153533 -0.214986 -1.22338 1.69782 2.34375 0.062991 
0.163319 -0.218127 -1.21971 0.618536 2.88852 0.0246366 
0.0938614 -0.229642 -1.23213 -2.22134 1.3432 -1.63574 
0.0983417 -0.226486 -1.23722 -2.47614 0.558251 -1.73069 
0.101946 -0.236295 -1.24527 -2.39745 0.577634 -1.8332 
0.0903252 -0.238289 -1.23559 -3.60236 2.40423 -4.24729 
0.0968582 -0.23949 -1.24078 -1.94103 0.551163 -2.30947 
0.0915636 -0.241976 -1.23674 -1.65357 -0.125291 -2.66554 
0.163114 -0.218576 -1.21897 -0.293804 -0.162366 1.8064 
0.0851028 -0.240307 -1.23434 -1.40737 0.201611 -0.638796 
0.0849942 -0.240704 -1.23291 -3.97105 0.229162 -1.9538 
0.0889243 -0.233061 -1.22751 -0.509603 2.68752 1.44427 
0.0812133 -0.237892 -1.21906 -3.31016 0.463004 -0.72707 
0.0842569 -0.236058 -1.22358 -2.5446 1.87454 -1.22934 
0.0870201 -0.244342 -1.23261 -2.44043 -0.762569 -1.79957 
0.0835129 -0.246616 -1.2288 -2.61169 0.970295 -1.48568 
0.0814017 -0.248796 -1.22544 -2.82034 0.514615 -1.36275 
0.0806592 -0.238219 -1.21302 -2.75093 1.62179 -0.821827 
0.0750884 -0.249525 -1.21535 -4.30989 0.971865 -3.67703 
0.0804159 -0.251402 -1.22167 2.96488 0.115743 0.855283 
0.0703507 -0.250537 -1.21155 -3.73578 3.64627 -2.41431 
0.0792692 -0.254838 -1.21723 -2.33823 -1.24817 -1.71479 
0.0669178 -0.255783 -1.21132 -3.03849 1.10492 -4.03439 
0.0659834 -0.258367 -1.21065 -2.10154 -1.67356 -5.1667 
0.0800974 -0.238227 -1.20223 -1.46338 2.15732 -0.0745939 
0.0811397 -0.237843 -1.20689 -1.20792 2.53837 -0.0610103 
0.0702977 -0.248344 -1.20474 -4.83569 3.76634 -0.889665 
0.0642892 -0.257824 -1.20951 -4.08473 1.33928 -2.99294 
0.0684339 -0.265444 -1.20584 0.0281294 -2.10131 -2.46083 
0.0777199 -0.258904 -1.21262 -0.907222 -1.52033 -2.59895 
0.0639019 -0.264707 -1.20698 -0.464017 -1.45891 -3.14472 
0.0721808 -0.266227 -1.20441 0.141297 -1.87863 -1.48355 
0.0764167 -0.262868 -1.20826 0.125184 -2.26273 -1.96479 
0.0748448 -0.265572 -1.20509 0.0560359 -1.74124 -1.4575 
0.0770264 -0.240226 -1.19838 -2.21135 2.18366 -0.246413 
0.0713337 -0.246075 -1.18688 -2.49743 2.33092 -0.0830797 
0.0597703 -0.264985 -1.20563 -2.42007 0.795791 -1.38581 
0.0735941 -0.243328 -1.19356 -2.65241 2.12263 -0.170279 
0.0579722 -0.26645 -1.20177 -2.73815 0.74056 -1.24792 
0.0515634 -0.266802 -1.19074 -4.40693 2.31865 -3.02474 
0.0589788 -0.268766 -1.19689 -0.778106 -3.15886 -1.22981 
0.0640791 -0.252985 -1.1888 -4.44779 4.29002 -0.568076 
0.0573319 -0.259878 -1.19113 -4.35437 4.16848 -1.26998 
0.0611946 -0.258139 -1.1984 -4.73659 3.76325 -1.34883 
0.0488492 -0.266231 -1.1859 -3.36326 4.9986 -1.36844 
0.0751267 -0.269347 -1.18077 1.26925 -1.98249 -0.450203 
0.0509296 -0.269672 -1.18947 -1.96077 -3.69292 -4.45567 
0.071633 -0.27063 -1.18497 1.2433 -2.55451 -0.677069 
0.0629523 -0.275143 -1.18034 1.07959 -5.71027 -2.23176 
0.0664943 -0.271718 -1.18852 0.740902 -3.0767 -0.988979 
0.0619555 -0.270966 -1.19233 -0.250787 -3.18948 -1.28016 
0.0620674 -0.25481 -1.18149 -4.03126 4.80603 -0.173967 
0.0705123 -0.247614 -1.17883 -2.14484 2.43803 0.161125 
0.055943 -0.259373 -1.17908 -4.13913 4.64022 -0.110489 
0.0754466 -0.270205 -1.17609 1.26176 -1.8825 -0.551845 
0.0401245 -0.272045 -1.18551 -1.12554 0.260028 -0.910868 
0.0361709 -0.274859 -1.17452 -3.37113 4.70947 -1.67272 
0.0705341 -0.272981 -1.17816 2.89068 -5.28625 -1.68419 
0.0726987 -0.273495 -1.17267 1.30243 -2.04794 -0.923625 
0.0613114 -0.279719 -1.1711 0.388968 -3.02549 -1.42926 
0.0497416 -0.273514 -1.18465 -0.319587 -5.30933 -3.25757 
0.0458088 -0.276826 -1.17875 0.0190821 -5.47396 -3.03463 
0.038839 -0.275389 -1.1805 -1.42804 -4.42997 -3.87205 
0.0387323 -0.27354 -1.18183 -4.59553 1.23412 -1.82092 
0.0302438 -0.279915 -1.18151 -0.356419 -0.198519 -0.331661 
0.067594 -0.277242 -1.17156 1.14207 -2.48976 -1.05698 
0.0300191 -0.27997 -1.18159 0.136219 0.374375 -0.611369 
0.0703659 -0.248596 -1.17041 -1.89797 2.37011 0.288665 
0.0660436 -0.251877 -1.17189 -3.94395 4.86585 0.461751 
0.0645668 -0.253935 -1.16447 -3.84866 4.92472 0.628071 
0.0555159 -0.261098 -1.16511 -3.74062 5.02255 0.409791 
0.0424417 -0.270895 -1.18684 -2.19487 0.765851 -2.6614 
0.0359698 -0.278313 -1.17658 0.20314 -1.3854 -4.57703 
0.0257984 -0.282378 -1.17872 -1.64376 1.56542 -5.15426 
0.0443425 -0.280404 -1.17203 0.514413 -5.61744 -2.71842 
0.0277198 -0.284397 -1.17813 2.08988 -3.59187 -4.13712 
0.0679622 -0.253252 -1.15305 -1.77829 2.41232 0.446638 
0.0697483 -0.250257 -1.16197 -1.82808 2.31391 0.358197 
0.0611882 -0.257508 -1.15648 -3.90483 4.82439 0.843068 
0.0462545 -0.267092 -1.16592 -3.67093 5.05658 0.196655 
0.029355 -0.277613 -1.17557 -1.87163 5.29366 -2.29668 
0.0561117 -0.280954 -1.16866 0.111558 -3.62339 -1.30826 
0.054398 -0.281757 -1.16397 0.414508 -3.72162 -0.887873 
0.0395062 -0.28295 -1.168 1.85475 -5.41599 -2.46276 
3 4 5 2 
3 2 5 3 
3 8 11 25 
3 12 11 9 
3 12 25 11 
3 15 14 17 
3 17 14 32 
3 16 15 17 
3 16 17 18 
3 19 20 35 
3 21 20 19 
3 22 12 9 
3 35 12 22 
3 23 22 24 
3 24 22 9 
3 12 35 26 
3 12 26 25 
3 35 27 26 
3 26 32 25 
3 28 26 27 
3 28 27 29 
3 30 32 26 
3 30 26 28 
3 30 31 17 
3 32 30 17 
3 35 22 44 
3 35 44 33 
3 47 44 23 
3 23 44 22 
3 49 36 28 
3 37 49 38 
3 49 28 38 
3 38 39 37 
3 43 34 54 
3 33 44 55 
3 55 44 45 
3 58 45 47 
3 47 45 44 
3 57 58 46 
3 46 58 47 
3 48 36 49 
3 51 48 49 
3 37 51 49 
3 37 39 51 
3 39 52 51 
3 64 43 54 
3 68 43 64 
3 63 55 56 
3 56 55 45 
3 67 56 58 
3 58 56 45 
3 84 67 57 
3 57 67 58 
3 43 68 84 
3 57 43 84 
3 70 60 69 
3 72 60 70 
3 62 66 61 
3 62 63 66 
3 78 65 77 
3 63 56 66 
3 85 66 67 
3 67 66 56 
3 84 85 67 
3 87 76 75 
3 82 76 89 
3 78 77 75 
3 78 75 82 
3 82 75 76 
3 86 79 94 
3 80 79 86 
3 68 64 82 
3 86 68 82 
3 86 82 80 
3 81 93 82 
3 81 82 64 
3 93 92 82 
3 78 82 65 
3 92 65 82 
3 94 83 85 
3 85 83 66 
3 85 84 86 
3 94 85 86 
3 86 84 68 
3 88 76 87 
3 91 82 89 
3 91 90 80 
3 80 90 79 
3 91 80 82 
3 83 94 95 
3 99 97 98 
3 99 98 100 
3 106 100 98 
3 106 96 100 
3 96 106 103 
3 106 98 107 
3 101 106 102 
3 107 104 114 
3 105 107 114 
3 105 106 107 
3 105 110 106 
3 112 102 110 
3 110 102 106 
3 108 112 109 
3 108 102 112 
3 117 109 112 
3 111 110 116 
3 111 112 110 
3 113 112 111 
3 113 117 112 
3 118 120 123 
3 108 109 115 
3 120 121 124 
3 120 124 123 
3 121 136 124 
3 113 124 117 
3 136 117 124 
3 118 119 122 
3 118 122 121 
3 118 121 120 
3 125 123 124 
3 125 124 137 
3 118 123 125 
3 118 125 119 
3 119 125 126 
3 132 462 464 
3 132 464 133 
3 133 464 456 
3 127 129 128 
3 130 131 129 
3 128 129 134 
3 134 129 135 
3 119 126 140 
3 140 141 138 
3 140 138 119 
3 139 141 140 
3 140 144 139 
3 142 141 139 
3 148 144 143 
3 149 142 144 
3 142 139 144 
3 148 149 144 
3 154 145 149 
3 149 145 142 
3 148 147 146 
3 152 149 146 
3 149 148 146 
3 149 152 154 
3 150 146 151 
3 152 146 150 
3 153 154 152 
3 154 153 164 
3 155 157 156 
3 163 156 157 
3 165 158 152 
3 150 165 152 
3 158 161 153 
3 152 158 153 
3 161 164 153 
3 161 159 164 
3 160 158 165 
3 163 162 156 
3 161 160 162 
3 161 158 160 
3 162 159 161 
3 160 169 156 
3 160 156 162 
3 159 170 164 
3 167 160 165 
3 173 167 165 
3 159 162 166 
3 160 167 168 
3 169 160 168 
3 170 175 176 
3 171 170 159 
3 175 170 171 
3 179 172 180 
3 185 173 179 
3 173 172 179 
3 185 167 173 
3 183 182 166 
3 185 186 168 
3 168 186 174 
3 168 167 185 
3 176 175 188 
3 188 175 190 
3 171 191 175 
3 191 190 175 
3 179 180 178 
3 180 177 178 
3 184 185 179 
3 181 182 183 
3 185 184 186 
3 188 190 189 
3 189 190 194 
3 190 191 194 
3 195 192 194 
3 192 193 194 
3 193 201 194 
3 195 194 171 
3 199 187 196 
3 197 199 196 
3 201 204 194 
3 204 203 194 
3 212 198 197 
3 197 198 199 
3 217 200 208 
3 217 201 200 
3 217 202 201 
3 201 202 204 
3 210 203 204 
3 205 198 212 
3 214 199 205 
3 199 198 205 
3 217 208 206 
3 206 208 207 
3 209 210 202 
3 202 210 204 
3 218 203 211 
3 210 211 203 
3 211 210 220 
3 213 205 212 
3 213 215 214 
3 213 214 205 
3 215 219 214 
3 214 219 216 
3 219 217 206 
3 219 206 216 
3 210 209 220 
3 220 209 223 
3 209 221 223 
3 225 211 220 
3 220 226 225 
3 223 222 229 
3 221 222 223 
3 225 226 224 
3 224 226 227 
3 228 229 222 
3 236 230 231 
3 239 236 231 
3 234 232 228 
3 228 232 229 
3 228 233 234 
3 233 235 234 
3 236 238 237 
3 236 239 238 
3 238 239 242 
3 234 244 243 
3 232 234 243 
3 244 234 245 
3 235 240 234 
3 234 240 245 
3 248 238 242 
3 247 248 241 
3 241 248 242 
3 249 247 243 
3 243 244 249 
3 249 244 251 
3 251 244 245 
3 250 240 235 
3 250 245 240 
3 250 251 245 
3 246 238 248 
3 253 246 248 
3 249 253 248 
3 247 249 248 
3 251 254 249 
3 250 257 251 
3 255 257 250 
3 255 250 252 
3 254 253 249 
3 259 254 251 
3 257 256 259 
3 251 257 259 
3 255 256 257 
3 261 252 258 
3 263 261 258 
3 252 261 255 
3 265 254 259 
3 266 265 259 
3 260 266 259 
3 259 256 260 
3 260 256 267 
3 268 267 255 
3 255 267 256 
3 262 261 263 
3 262 264 255 
3 261 262 255 
3 264 268 255 
3 263 275 262 
3 274 267 268 
3 271 269 274 
3 271 274 264 
3 264 274 268 
3 270 262 275 
3 264 262 270 
3 264 270 271 
3 272 266 277 
3 260 277 266 
3 273 278 267 
3 267 278 260 
3 273 267 274 
3 279 273 274 
3 274 269 279 
3 279 269 283 
3 291 269 271 
3 283 269 291 
3 286 270 275 
3 276 271 286 
3 271 270 286 
3 271 276 291 
3 277 288 272 
3 278 277 260 
3 273 279 280 
3 280 279 281 
3 282 281 283 
3 283 281 279 
3 283 291 282 
3 294 285 284 
3 284 285 275 
3 295 286 285 
3 285 286 275 
3 295 287 286 
3 287 296 276 
3 286 287 276 
3 296 291 276 
3 296 298 291 
3 289 288 278 
3 278 288 277 
3 289 278 273 
3 314 289 273 
3 273 280 314 
3 281 282 290 
3 281 290 280 
3 282 292 290 
3 282 291 292 
3 293 285 294 
3 293 295 285 
3 298 305 292 
3 298 292 291 
3 293 287 295 
3 308 296 297 
3 297 296 287 
3 298 296 308 
3 298 308 299 
3 305 299 311 
3 298 299 305 
3 311 299 300 
3 302 312 288 
3 312 301 288 
3 302 288 303 
3 303 289 314 
3 288 289 303 
3 337 314 280 
3 315 337 280 
3 304 315 290 
3 290 315 280 
3 306 290 292 
3 304 290 306 
3 292 305 306 
3 306 305 320 
3 318 293 307 
3 293 294 307 
3 309 287 318 
3 287 293 318 
3 297 287 309 
3 319 308 297 
3 319 297 309 
3 310 320 311 
3 320 305 311 
3 313 303 314 
3 337 313 314 
3 307 317 316 
3 318 307 316 
3 325 309 318 
3 325 319 309 
3 326 320 310 
3 326 310 321 
3 322 334 313 
3 334 303 313 
3 322 313 335 
3 313 337 335 
3 324 337 315 
3 324 315 304 
3 304 323 324 
3 327 328 325 
3 318 327 325 
3 320 326 339 
3 339 326 342 
3 328 327 329 
3 328 361 325 
3 325 361 330 
3 332 326 321 
3 331 332 321 
3 326 332 342 
3 333 334 322 
3 335 336 350 
3 335 337 336 
3 336 337 324 
3 350 349 338 
3 335 350 338 
3 352 336 324 
3 339 342 354 
3 342 362 354 
3 328 329 341 
3 360 328 341 
3 360 361 328 
3 344 332 331 
3 362 342 344 
3 362 344 343 
3 332 344 342 
3 345 344 331 
3 345 331 346 
3 347 348 333 
3 350 351 363 
3 350 363 349 
3 350 336 352 
3 350 352 351 
3 371 340 370 
3 340 353 370 
3 362 353 354 
3 362 356 353 
3 353 340 354 
3 355 356 362 
3 329 358 357 
3 367 376 341 
3 359 360 376 
3 376 360 341 
3 359 361 360 
3 362 379 355 
3 368 363 382 
3 383 382 351 
3 351 382 363 
3 364 383 352 
3 352 383 351 
3 387 366 386 
3 387 365 366 
3 386 366 367 
3 386 367 368 
3 368 367 363 
3 373 369 370 
3 370 369 371 
3 372 373 353 
3 353 373 370 
3 374 372 356 
3 356 372 353 
3 377 365 375 
3 366 365 377 
3 366 376 367 
3 366 377 376 
3 377 378 376 
3 381 380 379 
3 379 380 355 
3 390 381 379 
3 384 368 382 
3 382 383 384 
3 394 386 385 
3 394 387 386 
3 385 377 394 
3 377 375 394 
3 381 388 389 
3 380 381 389 
3 392 381 390 
3 391 388 381 
3 391 381 392 
3 391 392 393 
3 395 391 393 
3 391 399 388 
3 395 396 391 
3 396 399 391 
3 395 393 396 
3 393 400 396 
3 388 399 397 
3 398 399 396 
3 396 400 398 
3 400 401 398 
3 401 402 398 
3 402 404 403 
3 398 402 403 
3 404 402 407 
3 402 405 407 
3 404 412 403 
3 412 404 406 
3 407 415 404 
3 408 406 404 
3 408 404 415 
3 408 415 409 
3 413 408 409 
3 420 410 403 
3 403 410 411 
3 403 412 420 
3 408 413 412 
3 406 408 412 
3 414 415 418 
3 414 416 409 
3 415 414 409 
3 416 413 409 
3 416 422 413 
3 418 417 414 
3 418 419 417 
3 412 423 420 
3 412 413 421 
3 421 413 429 
3 422 424 429 
3 422 429 413 
3 421 423 412 
3 427 421 429 
3 429 424 428 
3 428 424 425 
3 436 432 426 
3 426 432 424 
3 424 432 425 
3 421 427 438 
3 438 427 437 
3 437 427 429 
3 428 439 437 
3 429 428 437 
3 430 439 425 
3 425 439 428 
3 440 433 431 
3 457 430 425 
3 457 425 432 
3 457 432 441 
3 433 440 443 
3 434 435 443 
3 435 433 443 
3 446 436 434 
3 436 435 434 
3 432 436 446 
3 441 432 446 
3 438 454 453 
3 454 438 437 
3 439 454 437 
3 449 457 441 
3 442 457 449 
3 451 443 440 
3 451 440 444 
3 451 445 434 
3 443 451 434 
3 445 467 434 
3 434 467 446 
3 447 446 467 
3 448 441 447 
3 441 446 447 
3 448 449 441 
3 459 450 452 
3 453 454 463 
3 463 454 455 
3 439 456 455 
3 454 439 455 
3 456 439 430 
3 430 457 465 
3 442 465 457 
3 467 460 447 
3 460 458 448 
3 447 460 448 
3 450 466 458 
3 450 458 452 
3 466 442 458 
3 448 458 449 
3 442 449 458 
3 459 466 450 
3 458 460 469 
3 458 469 452 
3 469 461 452 
3 461 459 452 
3 462 463 455 
3 464 462 455 
3 455 456 464 
3 430 465 456 
3 469 460 468 
3 460 467 468 
