ply
format ascii 1.0
comment VCGLIB generated
element vertex 302
property float x
property float y
property float z
property float nx
property float ny
property float nz
element face 392
property list uchar int vertex_indices
end_header
-0.146693 -0.405247 -1.00343 2.81725 1.66065 1.03229 
-0.179494 -0.411673 -0.992705 -1.00783 3.44493 -0.641486 
-0.171662 -0.411831 -1.00808 -1.40176 3.52393 -0.502474 
-0.151284 -0.404221 -1.00067 -0.622296 3.23737 -0.257494 
-0.153112 -0.406017 -0.997036 -0.414331 2.80252 1.12326 
-0.183024 -0.41469 -0.996023 -1.59791 2.6178 -0.92144 
-0.182514 -0.417125 -1.00318 -1.5693 2.35275 -0.912515 
-0.176638 -0.414002 -1.00493 -1.76394 2.76475 -0.965624 
-0.18626 -0.417982 -0.998694 -1.28913 1.85251 -0.722559 
-0.186343 -0.41903 -1.00123 -0.96659 1.38803 -0.541966 
-0.15075 -0.422853 -1.0021 2.0167 -0.907815 0.0290908 
-0.149423 -0.419634 -1.00159 2.5423 -1.1232 0.474438 
-0.158865 -0.406134 -1.00401 -2.09116 5.87432 0.158552 
-0.159197 -0.406291 -1.01145 -2.09305 5.8728 0.0317997 
-0.14907 -0.40353 -1.00276 -1.61039 1.43236 -1.20473 
-0.145837 -0.409634 -1.00327 3.1985 -0.165747 0.61991 
-0.154055 -0.418886 -1.01024 0.355892 -1.74262 -1.34983 
-0.151193 -0.417248 -1.0116 4.09767 -4.19002 1.40344 
-0.15391 -0.420579 -1.00872 2.04745 -1.31978 -1.41712 
-0.152346 -0.422925 -1.00723 2.21338 1.26814 -0.326604 
-0.147214 -0.41501 -1.00248 2.69159 -1.46204 -0.483127 
-0.1513 -0.424063 -1.00456 2.06876 -0.478965 -0.904284 
-0.145271 -0.402005 -1.01358 0.920321 5.09276 2.84185 
-0.143969 -0.397521 -1.02063 -0.0627064 5.25527 1.98826 
-0.144646 -0.403129 -1.01265 5.09825 2.43085 2.22547 
-0.143237 -0.397556 -1.02101 2.8325 4.04968 1.45235 
-0.158998 -0.406009 -1.019 -3.02061 5.46094 0.00299001 
-0.169805 -0.411687 -1.01274 -1.87343 3.60669 -0.384643 
-0.144657 -0.409993 -1.01068 0.552141 -0.208201 1.70606 
-0.147389 -0.40335 -1.01218 -4.37615 2.48409 2.02353 
-0.144663 -0.40999 -1.01079 0.263567 0.0130727 -0.0801313 
-0.152814 -0.405019 -1.01203 0.369394 5.83514 1.16408 
-0.180317 -0.419435 -1.01726 -1.47059 2.09362 -0.561104 
-0.151168 -0.418461 -1.01315 1.77893 -1.90383 1.75752 
-0.14608 -0.418522 -1.01712 2.26986 -1.05094 1.85794 
-0.151184 -0.399668 -1.02733 -3.49295 5.06483 -0.0864476 
-0.152407 -0.402252 -1.01648 -2.45574 4.81185 2.30409 
-0.175952 -0.41631 -1.01704 -1.75006 2.61738 -0.729911 
-0.172197 -0.416727 -1.02779 -3.64929 4.89553 -1.47273 
-0.171664 -0.413446 -1.0163 -2.10833 3.2736 -0.699562 
-0.140921 -0.41853 -1.0218 2.35147 -0.23659 2.18709 
-0.140849 -0.403315 -1.02087 5.25056 1.29327 2.85439 
-0.137148 -0.419056 -1.02719 2.85651 -0.699798 1.74267 
-0.183527 -0.422408 -1.01994 -1.52377 2.29961 -0.639499 
-0.176926 -0.420213 -1.02765 -3.45933 4.99204 -1.60114 
-0.141953 -0.397351 -1.02676 2.70814 4.80086 0.332181 
-0.15388 -0.401942 -1.02734 -3.98894 4.80718 -0.0201887 
-0.14468 -0.396922 -1.03007 0.312732 5.2035 -1.38117 
-0.147187 -0.397286 -1.02721 -2.01146 5.5861 -0.00527503 
-0.138114 -0.400324 -1.02833 3.51622 4.48994 1.31334 
-0.129636 -0.405514 -1.03505 2.64819 0.343655 1.76735 
-0.131474 -0.402588 -1.03541 1.93796 2.61072 0.982667 
-0.160184 -0.407095 -1.0276 -3.9385 4.82474 -0.508965 
-0.135091 -0.410341 -1.02786 5.01796 -0.466301 3.66781 
-0.166143 -0.411952 -1.02681 -3.74424 4.92666 -1.05124 
-0.129071 -0.41046 -1.03786 2.67173 -1.25068 1.23453 
-0.189678 -0.428756 -1.02949 1.91315 -2.35064 0.303665 
-0.186327 -0.425406 -1.02467 -1.65359 2.64198 -0.759707 
-0.145004 -0.398754 -1.03437 -0.0467784 5.81095 -1.52444 
-0.133828 -0.401943 -1.03822 0.834411 3.49104 -0.564584 
-0.160396 -0.409195 -1.03508 -4.1252 4.60675 -1.08775 
-0.15299 -0.402446 -1.03548 -3.61666 5.03502 -0.679329 
-0.128529 -0.406056 -1.04555 0.932354 2.92288 -0.296376 
-0.167876 -0.415519 -1.03532 -4.01916 4.66112 -1.25526 
-0.161778 -0.412529 -1.04359 -4.28788 4.48555 -0.835404 
-0.134194 -0.417872 -1.04256 3.84557 -4.80035 0.38266 
-0.18262 -0.427243 -1.03681 -3.03639 4.77645 -2.70994 
-0.175894 -0.422168 -1.03511 -3.44891 4.78958 -2.12452 
-0.17664 -0.428674 -1.04637 -2.15706 2.40041 -1.07928 
-0.170361 -0.417683 -1.03536 -3.98735 4.59123 -1.55805 
-0.135545 -0.420883 -1.03252 3.10012 -1.44987 0.440157 
-0.139713 -0.42747 -1.04209 2.20956 -1.07801 -0.554337 
-0.136587 -0.423922 -1.03731 -0.591539 2.39496 -1.39081 
-0.182071 -0.425569 -1.03407 -3.14256 5.04775 -1.99083 
-0.17621 -0.42529 -1.04039 -3.48279 4.57079 -2.49544 
-0.140348 -0.430093 -1.03905 1.06833 -1.77405 -1.33546 
-0.141348 -0.431079 -1.03856 0.363427 -0.593573 -0.452783 
-0.141324 -0.429943 -1.04003 1.14061 -1.91058 -1.42834 
-0.193375 -0.432323 -1.03381 -1.30926 2.48415 -1.17575 
-0.196401 -0.435525 -1.03823 -0.837725 2.42672 -1.10781 
-0.197434 -0.437779 -1.04287 -0.621882 2.12258 -0.880137 
-0.151535 -0.402407 -1.04984 -1.23764 5.67374 -0.974516 
-0.153304 -0.403172 -1.04337 -4.18449 4.62988 -0.25199 
-0.152716 -0.404071 -1.05726 -0.989335 5.52228 -1.65088 
-0.150356 -0.400972 -1.04277 -2.2447 5.59956 -0.600091 
-0.134821 -0.402916 -1.04198 0.776047 3.69966 -1.24254 
-0.157845 -0.408785 -1.05062 -4.7931 4.05661 -0.174035 
-0.157913 -0.408393 -1.04333 -4.59069 4.24571 -0.504837 
-0.132958 -0.404482 -1.04457 0.855244 3.59016 -0.951807 
-0.128869 -0.406415 -1.05016 1.27381 6.08156 -0.83399 
-0.123253 -0.407799 -1.04707 0.896579 2.61206 0.171137 
-0.167177 -0.417206 -1.04274 -4.186 4.53582 -1.12984 
-0.12974 -0.416018 -1.04367 1.15251 -2.45198 1.42718 
-0.136565 -0.419532 -1.04815 2.66737 -5.10885 1.08476 
-0.172054 -0.424139 -1.04895 -2.57176 2.1341 -0.524088 
-0.168881 -0.418832 -1.04291 -4.41674 4.2908 -1.21653 
-0.137789 -0.420686 -1.04955 4.142 -3.83386 0.782087 
-0.136504 -0.419586 -1.04463 4.70995 -3.81856 -0.546248 
-0.192204 -0.436765 -1.04412 -1.99104 5.43873 -2.39237 
-0.195358 -0.438569 -1.04631 -0.567096 1.9191 -0.764152 
-0.183052 -0.433525 -1.04603 -1.4892 2.46507 -1.39357 
-0.190073 -0.43721 -1.04697 -0.98172 2.40725 -1.10991 
-0.155067 -0.405305 -1.05746 -3.71653 4.18722 -1.39523 
-0.153702 -0.403808 -1.0513 -3.93245 4.74913 -0.337145 
-0.114516 -0.403712 -1.05976 -1.18076 2.73957 0.553446 
-0.111592 -0.403189 -1.05744 0.218736 1.18622 2.24554 
-0.157432 -0.408602 -1.05878 -4.11479 4.48948 -1.03677 
-0.118871 -0.41003 -1.05067 1.50186 1.94444 1.43938 
-0.122511 -0.407528 -1.05123 1.92096 5.7509 0.773807 
-0.10901 -0.404843 -1.05779 1.21546 -0.350406 2.62463 
-0.10647 -0.407405 -1.06066 1.90849 -1.6203 1.9477 
-0.165407 -0.417237 -1.05671 1.78265 -2.38567 -0.470381 
-0.161677 -0.413306 -1.05078 -4.5555 4.28723 -0.270483 
-0.162716 -0.414335 -1.06123 -2.53008 2.31595 0.015447 
-0.116182 -0.412792 -1.05553 2.17915 -1.20037 2.05399 
-0.16861 -0.420425 -1.05268 -2.37044 2.1811 -0.301735 
-0.140439 -0.425395 -1.05256 2.20987 -1.98226 0.227283 
-0.134392 -0.422358 -1.05799 1.09586 -2.64842 0.348134 
-0.131633 -0.420273 -1.05107 0.220169 -2.78409 1.07838 
-0.161188 -0.412485 -1.06645 -1.75961 2.97699 -0.403978 
-0.152508 -0.40524 -1.05996 -1.28849 5.00766 -2.74216 
-0.143732 -0.406237 -1.05971 0.681391 5.9058 -1.95383 
-0.151937 -0.408295 -1.06552 -1.01676 5.61213 -2.30136 
-0.132518 -0.410583 -1.06948 -0.084978 3.07777 -1.19855 
-0.134755 -0.407156 -1.05906 0.411753 6.10853 -1.32976 
-0.120496 -0.406649 -1.05798 -1.17326 5.97345 0.896156 
-0.118918 -0.405908 -1.06324 -1.17421 2.70056 0.0281803 
-0.125406 -0.408378 -1.06635 -0.404674 3.00285 -0.639194 
-0.114614 -0.415656 -1.0607 2.01009 -1.61062 1.50183 
-0.139665 -0.424445 -1.056 1.72407 -0.100429 0.450964 
-0.137275 -0.42314 -1.06186 0.509943 -1.51277 -0.147945 
-0.105908 -0.414861 -1.07009 4.31116 -3.00892 3.37202 
-0.143001 -0.410935 -1.07298 0.750546 4.67905 -0.916365 
-0.141806 -0.41174 -1.07242 0.527969 3.42997 -0.940355 
-0.103169 -0.409692 -1.07061 2.81871 -0.569096 1.25684 
-0.104277 -0.409214 -1.06526 2.168 -1.8156 1.41343 
-0.139584 -0.423935 -1.0601 0.488782 -2.27001 -0.384132 
-0.11231 -0.417881 -1.06617 1.75331 -1.67574 1.55358 
-0.107917 -0.41951 -1.07187 1.87335 -1.57367 1.99586 
-0.152361 -0.412027 -1.07395 -0.717063 5.58154 -2.7239 
-0.103747 -0.409227 -1.07928 1.46205 -2.3054 -0.297321 
-0.103277 -0.40941 -1.07555 1.10391 -2.82828 -0.192505 
-0.160285 -0.415305 -1.07731 -0.760551 2.67316 -1.25074 
-0.158657 -0.415174 -1.07802 -1.28247 5.53662 -2.6538 
-0.160653 -0.412931 -1.07189 -0.86701 2.95123 -0.991929 
-0.152392 -0.416153 -1.08111 -0.611796 5.50103 -2.96288 
-0.138383 -0.41249 -1.07351 0.826636 3.76344 -1.62507 
-0.13516 -0.41549 -1.07889 0.476883 2.89129 -0.838727 
-0.141765 -0.411255 -1.07377 0.272751 3.21611 -1.58186 
-0.110038 -0.411978 -1.08134 -0.920416 1.92321 -0.94208 
-0.10265 -0.421714 -1.0783 1.84294 -1.75511 2.23733 
-0.140872 -0.417687 -1.09193 -0.58186 3.31009 -1.29855 
-0.132768 -0.416685 -1.08355 0.412657 2.43486 -0.30429 
-0.133321 -0.41672 -1.08705 0.000156961 2.34713 -0.0235081 
-0.107023 -0.410491 -1.08125 -0.264685 2.41999 -1.81029 
-0.111508 -0.41372 -1.08346 -0.914216 1.90225 -0.90798 
-0.110354 -0.415007 -1.0874 -1.0447 2.32601 -1.06577 
-0.104678 -0.409575 -1.08116 0.898369 1.69784 -2.21983 
-0.0978087 -0.414023 -1.08298 2.58901 5.41916 -1.25365 
-0.0898625 -0.419504 -1.08605 1.20421 -0.383746 2.77702 
-0.0898535 -0.419497 -1.08606 1.73207 0.08568 2.65263 
-0.0836161 -0.418216 -1.09108 1.06896 0.218259 0.926896 
-0.159302 -0.417765 -1.08294 -0.329122 2.66722 -1.23477 
-0.153109 -0.417014 -1.08256 -0.737698 5.68486 -2.48654 
-0.15735 -0.41961 -1.08831 -0.461281 2.69766 -1.23754 
-0.144521 -0.415463 -1.08218 -0.390436 5.88372 -2.07339 
-0.136853 -0.416745 -1.08957 0.0289181 3.02051 -0.519603 
-0.0991524 -0.425333 -1.08654 1.47256 -2.64956 1.61547 
-0.0844996 -0.418134 -1.0896 0.941089 0.749561 0.70511 
-0.151167 -0.418851 -1.08938 -1.21518 5.49249 -2.64005 
-0.154841 -0.422019 -1.09249 -0.718888 2.2847 -2.11475 
-0.103516 -0.415951 -1.0957 0.132727 3.10013 -0.174535 
-0.1073 -0.415601 -1.09169 0.0143129 2.8575 -0.832511 
-0.0898829 -0.417192 -1.09773 0.294367 6.2476 0.40854 
-0.089859 -0.418833 -1.08607 2.25435 2.80431 3.26949 
-0.097832 -0.415856 -1.08969 1.57936 5.9184 -1.08566 
-0.152392 -0.425844 -1.09565 -0.727993 1.6063 -2.66 
-0.0898571 -0.420168 -1.08603 1.70822 -1.86294 4.16567 
-0.083482 -0.423654 -1.09944 3.41375 -3.7311 3.47579 
-0.0959395 -0.416834 -1.10325 0.374368 3.28149 -0.19793 
-0.0996083 -0.416372 -1.09957 0.369132 3.12106 -0.0450245 
-0.07945 -0.419776 -1.10275 3.15928 1.79447 4.4436 
-0.0745413 -0.414526 -1.10654 -0.924512 3.98529 4.51581 
-0.142573 -0.420003 -1.09481 -1.07077 2.66256 -2.57341 
-0.0746018 -0.426071 -1.10592 1.33699 -2.58374 5.41953 
-0.150008 -0.430161 -1.09873 -0.975815 1.64208 -2.52569 
-0.138018 -0.432171 -1.10875 -2.85465 4.53959 -3.26166 
-0.148275 -0.433641 -1.10187 -1.44262 2.3009 -2.20378 
-0.140775 -0.422916 -1.09794 -1.27719 1.94968 -2.75974 
-0.136177 -0.425073 -1.10128 -1.20583 2.09557 -2.13447 
-0.0896274 -0.431361 -1.105 1.84112 -4.81296 3.57226 
-0.0986329 -0.429753 -1.09585 1.25263 -2.78695 1.47438 
-0.0821823 -0.429116 -1.10573 1.82335 -4.47892 4.00428 
-0.0934829 -0.417467 -1.10676 -0.377796 3.64721 -0.128813 
-0.0751405 -0.409471 -1.11187 -3.01187 3.2605 4.36127 
-0.0820353 -0.417088 -1.10503 0.144932 5.77935 1.9194 
-0.131087 -0.426283 -1.10547 -1.1384 2.19327 -1.45875 
-0.127934 -0.427433 -1.11056 -0.523263 2.58818 -0.908878 
-0.126742 -0.429148 -1.11613 -1.51649 2.42203 -1.29089 
-0.0817697 -0.434244 -1.11202 0.409195 -4.60823 4.12581 
-0.152335 -0.437728 -1.10824 0.319143 2.6442 -1.58327 
-0.148952 -0.436026 -1.10488 -1.11857 2.80652 -1.93777 
-0.100534 -0.433587 -1.10355 0.60942 -3.09582 1.44227 
-0.10392 -0.436076 -1.10843 0.220086 2.52509 -1.44057 
-0.0850693 -0.415111 -1.11445 -2.92107 5.15186 1.50571 
-0.0932274 -0.418575 -1.11087 -1.53458 2.87976 -0.620978 
-0.094267 -0.419917 -1.11665 -1.97922 2.17059 -0.147981 
-0.0873205 -0.415706 -1.12026 -4.62313 3.90607 1.3634 
-0.125223 -0.431425 -1.12206 -1.45274 2.70034 -1.40444 
-0.155683 -0.441025 -1.11507 0.473892 1.72917 -1.08847 
-0.155638 -0.43924 -1.11204 0.491209 2.06986 -1.23601 
-0.152513 -0.439892 -1.11189 0.852483 5.29839 -3.2413 
-0.144665 -0.444129 -1.118 -1.20421 2.56509 -2.28558 
-0.136409 -0.433914 -1.11323 -3.35929 4.56307 -2.68821 
-0.143213 -0.44481 -1.11965 -2.77275 2.5511 -1.19679 
-0.111251 -0.439831 -1.11611 -0.308984 -2.46319 1.49136 
-0.0972782 -0.440175 -1.11988 0.366762 -5.64266 2.71011 
-0.148424 -0.446728 -1.12406 -0.475593 1.72534 1.12883 
-0.147894 -0.44395 -1.11694 -0.720526 -2.0885 -1.8422 
-0.152281 -0.442904 -1.11641 0.24086 2.26943 -1.62595 
-0.107853 -0.437787 -1.11203 0.268897 -2.74963 1.18171 
-0.0935248 -0.420685 -1.13195 -2.92034 1.48016 0.353005 
-0.0909578 -0.418605 -1.12114 -3.2388 5.32693 -0.235642 
-0.0944609 -0.420601 -1.12409 -1.35132 2.64278 -0.214761 
-0.107864 -0.428139 -1.1249 -0.663427 1.75214 -0.764649 
-0.111792 -0.429578 -1.12476 -0.861384 2.46433 -1.03827 
-0.109587 -0.430956 -1.12986 -0.781897 2.23464 -0.946017 
-0.106496 -0.428634 -1.1272 -0.587509 1.56926 -0.687157 
-0.140231 -0.440736 -1.12878 -1.20802 2.58764 0.918484 
-0.136594 -0.438244 -1.12165 -3.82369 4.59314 -1.77083 
-0.128764 -0.436489 -1.12875 -1.16906 2.56211 -0.993349 
-0.134823 -0.438534 -1.12892 -1.31613 2.77516 -0.133662 
-0.0877291 -0.438941 -1.11876 -0.281157 -5.28348 3.21663 
-0.0825558 -0.443228 -1.12244 -2.17476 -3.3535 4.64303 
-0.146118 -0.447238 -1.12236 -1.06268 2.09569 1.28853 
-0.145008 -0.443189 -1.12803 -0.978095 2.31425 1.31515 
-0.14821 -0.44527 -1.12627 -0.57694 1.90118 1.19838 
-0.143763 -0.446328 -1.12113 -2.24075 2.01067 0.578958 
-0.105931 -0.442025 -1.12224 0.622052 -5.68953 2.58343 
-0.113611 -0.442532 -1.12106 0.349508 -2.72883 1.28876 
-0.0978358 -0.444556 -1.12875 -0.374291 -5.6105 2.73823 
-0.0895682 -0.441933 -1.12411 -0.657925 -4.53583 3.78038 
-0.116627 -0.431801 -1.12636 -0.855818 2.90419 -1.18137 
-0.121915 -0.433646 -1.12756 -0.517218 1.7632 -0.924457 
-0.115727 -0.433171 -1.13037 -0.688724 2.29732 -0.939462 
-0.116464 -0.447043 -1.13063 1.14658 -2.45561 0.665086 
-0.116233 -0.447673 -1.13441 -0.0774033 -2.80107 0.462108 
-0.11535 -0.445242 -1.12614 0.446223 -2.83599 1.03194 
-0.114927 -0.44827 -1.13781 0.123607 -2.99554 1.18907 
-0.10566 -0.445036 -1.12898 0.413694 -5.83573 2.27676 
-0.0974969 -0.448139 -1.13537 -1.24733 -5.39353 2.90994 
-0.0903077 -0.445596 -1.1284 -2.01554 -4.66893 3.42264 
-0.113787 -0.450333 -1.14158 0.0377548 -2.8863 1.68809 
-0.105467 -0.448145 -1.13721 -0.213032 -5.69544 2.60602 
-0.097477 -0.452454 -1.14459 -1.21483 -5.47718 2.70376 
-0.0932604 -0.421871 -1.13862 -3.49127 0.760933 0.409979 
-0.104634 -0.43258 -1.14971 -1.37023 2.11185 -1.78884 
-0.0985546 -0.428336 -1.14518 -1.55378 2.5541 -1.05293 
-0.10222 -0.430611 -1.14738 -0.752037 2.50619 -1.33868 
-0.110408 -0.442009 -1.15078 -1.29429 1.68218 -1.13442 
-0.106915 -0.441702 -1.15431 -3.0903 4.50543 -2.94301 
-0.108069 -0.438969 -1.15029 -1.79145 1.5338 -1.92409 
-0.113473 -0.453768 -1.14645 0.372583 -2.8053 1.65782 
-0.105714 -0.451943 -1.14467 0.025367 -5.61498 2.79531 
-0.104704 -0.45496 -1.15163 0.121849 -5.82399 2.20701 
-0.183016 -0.409848 -0.972283 -0.16993 6.09481 -1.46481 
-0.176518 -0.410021 -0.97219 0.661726 6.16403 -0.914297 
-0.185493 -0.417242 -0.971923 2.25403 0.0439485 0.113165 
-0.181785 -0.41776 -0.975764 1.48438 2.10231 1.77665 
-0.188041 -0.411625 -0.977579 1.79576 1.91706 1.09486 
-0.181064 -0.411941 -0.969971 1.44917 -2.73171 -0.473105 
-0.182678 -0.410139 -0.973708 -3.72812 -1.31385 -2.89345 
-0.189561 -0.410382 -0.973275 1.02265 1.68197 -1.2304 
-0.180283 -0.410908 -0.983879 -0.125869 3.13005 1.03936 
-0.184239 -0.411705 -0.980657 1.42197 2.23078 1.90559 
-0.177553 -0.410959 -0.970936 -0.148863 -3.52295 1.27622 
-0.176179 -0.417028 -0.979007 -0.00600214 -0.856466 2.22323 
-0.16536 -0.412274 -0.984507 0.411118 2.70236 1.24264 
-0.170527 -0.414964 -0.981643 0.665342 1.44809 2.56045 
-0.167821 -0.40913 -0.996326 -1.41672 6.06223 -0.0912097 
-0.178328 -0.410501 -0.988265 0.0522395 3.73188 -0.00953555 
-0.160297 -0.409962 -0.988224 -0.254671 2.81465 1.03031 
-0.16768 -0.410069 -0.989469 -0.572014 5.9582 1.68383 
-0.15591 -0.408012 -0.992609 -0.376829 2.75015 0.927404 
-0.160514 -0.407355 -0.996428 -1.37409 5.953 1.03807 
-0.183491 -0.407815 -0.965601 -0.0263481 2.4551 -0.754235 
-0.178768 -0.407737 -0.965333 0.1338 2.354 -0.770121 
-0.187792 -0.408837 -0.968582 -0.0309619 2.42241 -0.785819 
-0.175699 -0.408664 -0.96724 -0.0386944 2.04396 -1.05585 
-0.175341 -0.409959 -0.96976 1.28271 2.03807 0.237416 
-0.184318 -0.413571 -0.968463 1.39024 -1.53354 1.34228 
-0.18616 -0.415654 -0.968935 1.11544 -1.26427 0.955655 
-0.0950395 -0.424955 -1.14286 -3.26045 1.16093 0.112021 
-0.10614 -0.435463 -1.15069 -1.49303 0.760552 -2.86654 
-0.110334 -0.444906 -1.15789 -1.16537 2.34773 -0.988191 
-0.111543 -0.443971 -1.15361 -1.1102 2.00634 -0.836586 
-0.114144 -0.457124 -1.15213 0.663218 -2.96304 1.24642 
-0.107238 -0.445441 -1.16232 -1.08739 2.56329 -1.25373 
-0.115853 -0.459465 -1.15752 0.713093 -2.95713 0.859265 
-0.117435 -0.460876 -1.16191 0.570567 -2.40984 0.568935 
-0.116575 -0.461442 -1.16517 0.480565 -2.07299 0.490375 
-0.112242 -0.46087 -1.16698 0.580119 -2.60415 0.600936 
3 1 2 7 
3 1 279 2 
3 12 2 284 
3 284 2 279 
3 12 284 3 
3 3 284 4 
3 6 8 5 
3 5 1 7 
3 5 7 6 
3 8 6 9 
3 20 10 21 
3 11 10 20 
3 22 14 0 
3 29 14 22 
3 22 0 24 
3 27 2 12 
3 27 12 13 
3 12 3 13 
3 13 3 31 
3 31 3 30 
3 31 30 28 
3 3 14 30 
3 14 29 30 
3 30 24 15 
3 24 0 15 
3 18 16 17 
3 18 30 20 
3 18 28 30 
3 18 17 28 
3 30 15 20 
3 18 21 19 
3 20 21 18 
3 23 29 22 
3 23 36 29 
3 22 25 23 
3 22 24 25 
3 24 41 25 
3 26 27 13 
3 39 27 26 
3 36 26 31 
3 31 26 13 
3 29 36 28 
3 29 28 30 
3 36 31 28 
3 28 24 30 
3 28 41 24 
3 33 17 16 
3 28 17 33 
3 28 33 34 
3 41 34 40 
3 28 34 41 
3 32 37 43 
3 48 23 47 
3 45 23 25 
3 47 23 45 
3 46 36 35 
3 35 36 48 
3 48 36 23 
3 41 49 45 
3 41 45 25 
3 50 49 41 
3 39 26 54 
3 26 52 54 
3 36 46 52 
3 36 52 26 
3 50 41 53 
3 39 54 38 
3 39 38 37 
3 40 42 53 
3 40 53 41 
3 37 44 43 
3 43 44 57 
3 38 44 37 
3 61 46 35 
3 61 47 58 
3 61 48 47 
3 35 48 61 
3 47 45 49 
3 47 49 58 
3 58 49 59 
3 50 51 49 
3 51 59 49 
3 54 60 63 
3 54 52 60 
3 46 61 52 
3 52 61 60 
3 50 53 55 
3 63 69 54 
3 69 38 54 
3 55 53 42 
3 55 42 70 
3 67 73 44 
3 44 73 57 
3 38 69 67 
3 44 38 67 
3 57 73 78 
3 56 57 78 
3 84 82 61 
3 58 84 61 
3 58 81 84 
3 85 81 59 
3 59 81 58 
3 64 63 60 
3 61 82 87 
3 61 87 60 
3 60 87 64 
3 91 69 63 
3 95 69 91 
3 63 64 91 
3 97 65 70 
3 70 65 55 
3 55 65 92 
3 66 67 74 
3 73 67 66 
3 74 67 69 
3 74 69 68 
3 68 69 95 
3 71 97 70 
3 70 72 71 
3 73 66 78 
3 66 100 78 
3 68 100 74 
3 74 100 66 
3 71 75 77 
3 75 76 77 
3 79 78 98 
3 79 98 80 
3 100 98 78 
3 81 82 84 
3 103 82 81 
3 88 83 85 
3 83 81 85 
3 86 87 103 
3 103 87 82 
3 88 62 89 
3 108 89 90 
3 90 89 62 
3 108 90 107 
3 91 112 115 
3 91 64 112 
3 87 86 112 
3 64 87 112 
3 93 65 97 
3 96 93 97 
3 93 92 65 
3 115 95 91 
3 115 94 95 
3 94 68 95 
3 71 96 97 
3 96 71 116 
3 118 92 93 
3 101 99 98 
3 99 80 98 
3 101 98 100 
3 103 81 102 
3 81 83 102 
3 102 106 103 
3 103 106 86 
3 121 83 88 
3 121 88 124 
3 89 124 88 
3 125 124 108 
3 108 124 89 
3 107 114 105 
3 107 105 125 
3 107 125 108 
3 104 125 105 
3 109 114 110 
3 105 114 109 
3 113 115 112 
3 111 115 113 
3 86 106 113 
3 112 86 113 
3 117 93 96 
3 117 116 129 
3 116 117 96 
3 93 117 118 
3 102 83 120 
3 102 120 106 
3 120 122 106 
3 122 119 106 
3 121 120 83 
3 121 122 120 
3 121 133 122 
3 121 124 123 
3 127 123 124 
3 125 127 124 
3 104 126 125 
3 125 126 127 
3 119 113 106 
3 123 133 121 
3 137 114 128 
3 110 114 137 
3 110 137 135 
3 135 137 131 
3 116 136 130 
3 116 130 129 
3 129 130 117 
3 139 144 122 
3 122 144 119 
3 133 132 122 
3 132 139 122 
3 123 146 133 
3 150 134 131 
3 131 134 135 
3 131 137 138 
3 131 138 150 
3 143 144 139 
3 139 132 148 
3 157 141 134 
3 140 141 157 
3 143 142 144 
3 162 143 139 
3 145 162 139 
3 165 145 148 
3 148 145 139 
3 147 148 146 
3 147 165 148 
3 154 155 149 
3 134 158 157 
3 159 134 150 
3 158 134 159 
3 163 162 145 
3 165 163 145 
3 142 143 162 
3 165 169 164 
3 165 151 169 
3 166 165 147 
3 166 151 165 
3 147 152 166 
3 152 153 166 
3 154 172 155 
3 155 172 156 
3 154 157 158 
3 154 158 172 
3 172 158 175 
3 159 174 158 
3 174 175 158 
3 168 174 160 
3 161 174 168 
3 162 163 164 
3 164 163 165 
3 159 150 167 
3 159 167 177 
3 168 160 177 
3 177 167 191 
3 170 164 169 
3 170 151 183 
3 169 151 170 
3 180 171 175 
3 175 171 172 
3 173 180 174 
3 174 180 175 
3 195 173 161 
3 161 173 174 
3 181 161 168 
3 181 195 161 
3 183 185 176 
3 183 176 170 
3 178 168 177 
3 178 181 168 
3 177 191 178 
3 193 179 173 
3 173 179 180 
3 195 193 173 
3 182 195 181 
3 188 185 183 
3 184 181 178 
3 185 188 187 
3 186 187 189 
3 189 187 188 
3 196 186 189 
3 190 191 202 
3 192 178 190 
3 178 191 190 
3 178 192 184 
3 201 187 186 
3 205 193 204 
3 193 195 204 
3 194 204 182 
3 182 204 195 
3 198 213 196 
3 196 213 186 
3 196 197 198 
3 202 199 190 
3 190 199 192 
3 199 184 192 
3 210 200 211 
3 212 211 201 
3 201 211 200 
3 186 213 212 
3 201 186 212 
3 203 220 202 
3 199 202 232 
3 222 223 205 
3 205 223 206 
3 204 207 222 
3 205 204 222 
3 213 208 229 
3 213 198 208 
3 209 211 219 
3 210 211 209 
3 211 212 219 
3 214 212 213 
3 214 213 229 
3 215 239 220 
3 220 216 202 
3 232 202 216 
3 218 219 212 
3 220 239 238 
3 216 220 238 
3 221 223 222 
3 221 222 207 
3 224 226 225 
3 225 226 242 
3 227 226 224 
3 231 214 229 
3 231 228 214 
3 229 208 230 
3 229 230 231 
3 243 230 208 
3 216 241 232 
3 234 235 217 
3 235 236 217 
3 235 234 237 
3 235 237 228 
3 228 237 214 
3 249 238 247 
3 238 239 247 
3 216 238 240 
3 238 249 240 
3 251 216 240 
3 241 216 251 
3 243 242 244 
3 226 244 242 
3 248 247 245 
3 246 248 245 
3 253 249 248 
3 249 247 248 
3 250 240 253 
3 240 249 253 
3 251 240 250 
3 248 252 253 
3 253 254 250 
3 263 252 262 
3 253 252 263 
3 254 253 263 
3 256 258 257 
3 260 295 259 
3 261 260 259 
3 262 296 264 
3 262 264 263 
3 254 263 264 
3 272 265 271 
3 271 265 273 
3 265 266 273 
3 277 266 289 
3 277 273 266 
3 274 269 267 
3 274 267 268 
3 269 272 267 
3 270 267 271 
3 272 271 267 
3 268 276 273 
3 268 273 274 
3 276 275 273 
3 271 273 270 
3 275 270 273 
3 276 289 275 
3 276 277 289 
3 282 280 277 
3 277 280 273 
3 282 277 281 
3 278 277 276 
3 279 1 282 
3 282 1 280 
3 281 284 282 
3 284 279 282 
3 283 284 281 
3 4 284 283 
3 265 272 285 
3 285 272 287 
3 266 265 286 
3 286 265 285 
3 289 286 288 
3 266 286 289 
3 270 290 291 
3 267 270 291 
3 297 294 260 
3 260 294 295 
3 301 298 300 
3 298 299 300 
